<?xml version="1.0" encoding="UTF-8" standalone="no"?>
<!-- Created with Inkscape (http://www.inkscape.org/) -->

<svg
   width="100mm"
   height="30mm"
   viewBox="0 0 100 30"
   version="1.1"
   id="svg421"
   inkscape:version="1.2.2 (732a01da63, 2022-12-09)"
   sodipodi:docname="logo.svg"
   xml:space="preserve"
   xmlns:inkscape="http://www.inkscape.org/namespaces/inkscape"
   xmlns:sodipodi="http://sodipodi.sourceforge.net/DTD/sodipodi-0.dtd"
   xmlns="http://www.w3.org/2000/svg"
   xmlns:svg="http://www.w3.org/2000/svg"><sodipodi:namedview
     id="namedview423"
     pagecolor="#ffffff"
     bordercolor="#000000"
     borderopacity="0.25"
     inkscape:showpageshadow="2"
     inkscape:pageopacity="0.0"
     inkscape:pagecheckerboard="0"
     inkscape:deskcolor="#d1d1d1"
     inkscape:document-units="mm"
     showgrid="false"
     inkscape:zoom="0.914906"
     inkscape:cx="102.19629"
     inkscape:cy="216.41567"
     inkscape:window-width="2560"
     inkscape:window-height="1377"
     inkscape:window-x="-8"
     inkscape:window-y="-8"
     inkscape:window-maximized="1"
     inkscape:current-layer="g777" /><defs
     id="defs418" /><g
     inkscape:label="레이어 1"
     inkscape:groupmode="layer"
     id="layer1"><path
       style="fill:#d45500;stroke-width:1.09301"
       d=""
       id="path646"
       transform="scale(0.26458333)" /><g
       id="g777"><g
         aria-label="Gom"
         id="text427"
         style="font-size:71.9667px;font-family:Sorinka;-inkscape-font-specification:Sorinka;stroke-width:0.264583" /><g
         id="g813"
         transform="matrix(0.31126301,0,0,0.31126301,25.616265,-15.913466)"><path
           d="m 21.935269,86.030432 q 0.791634,-0.2159 1.295401,0.07197 0.575734,0.2159 0.791634,0.8636 0.2159,0.575734 0,1.151467 -0.143934,0.287867 -0.719667,0.575734 -0.647701,0.287867 -1.295401,0.503767 -0.6477,0.2159 -1.223434,0.4318 -0.719667,0.287867 -1.439334,0.575734 -0.6477,0.2159 -1.367367,0.4318 -1.0795,0.359833 -1.655234,-0.2159 -0.575734,-0.575734 -0.575734,-1.511301 0,-0.503767 0.503767,-0.6477 0.2159,-0.143934 0.359834,-0.143934 0.2159,-0.07197 0.4318,-0.2159 0.359834,-0.143933 0.359834,-0.503767 0,-1.223433 -0.287867,-2.302934 -0.143934,-0.575733 -0.359834,-1.151467 -0.143933,-0.6477 -0.287867,-1.223434 -0.143933,-0.4318 -0.6477,-0.6477 -1.5113,-0.719667 -2.446868,0.6477 -0.6477,0.935567 -1.0795,2.087034 -0.575734,1.367368 -1.0795,2.734735 -0.431801,1.2954 -0.791634,2.734734 -0.503767,1.871135 -0.8636005,4.030135 -0.719667,3.886202 -0.5037669,8.132235 0,0.57573 0.071967,1.22343 0.071967,0.57574 0.2159001,1.15147 l 0.6477003,3.6703 q 0.2159,0.93557 0.4318,1.87114 0.287867,0.93556 0.6477,1.79916 0.719667,1.7272 2.662768,2.51884 0.719667,0.35983 1.511301,-0.2159 0.6477,-0.50377 1.0795,-1.0795 0.4318,-0.6477 0.791634,-1.36737 0.2159,-0.57573 0.4318,-1.00753 0.2159,-0.50377 0.359833,-1.0795 0.143934,-0.57574 0.215901,-1.0795 0.07197,-0.50377 0.2159,-1.07951 l 0.4318,-2.5908 q 0,-0.28786 0,-0.50376 0.07197,-0.2159 0.07197,-0.4318 0.143934,-0.79164 0.143934,-1.43934 0.07197,-0.71966 0.143933,-1.5113 v -0.35983 h -0.503767 q -0.935567,0 -1.871134,0.072 -0.8636,0 -1.799167,0.072 -0.359834,0 -0.6477,0 -0.215901,-0.072 -0.575734,-0.14393 -0.6477,-0.14393 -0.935567,-0.6477 -0.2159,-0.575732 0,-1.223432 0.2159,-0.575734 0.719667,-0.935568 0.503767,-0.359833 1.151467,-0.359833 l 3.454402,-0.2159 q 1.583267,-0.143934 3.094568,-0.2159 1.5113,-0.07197 3.022601,0 0.359833,0 0.935567,0.143933 1.007534,0.143934 0.8636,1.295401 -0.07197,0.719667 -0.503767,1.0795 -0.4318,0.359829 -1.007533,0.503769 -0.143934,0 -0.287867,0.072 -0.143934,0 -0.287867,0 0,0.57574 0,1.0795 0.07197,0.4318 0,1.00754 -0.143933,1.00753 -0.2159,2.01506 0,1.00754 -0.143933,2.01507 -0.143934,0.6477 -0.287867,1.2954 -0.07197,0.6477 -0.2159,1.2954 -0.431801,2.01507 -1.151468,3.95817 -0.719666,1.87113 -1.9431,3.52637 -1.007534,1.43933 -2.374901,2.5908 -1.295401,1.15147 -2.950635,1.9431 -0.575734,0.28787 -1.223434,0.35983 -0.6477,0.14394 -1.2954,0.28787 -0.647701,0.072 -1.367368,0.072 -0.6477,0.072 -1.2953999,-0.072 -1.9431008,-0.2159 -3.8862017,-1.22343 -1.5832673,-0.8636 -2.7347345,-2.08704 -1.1514672,-1.22343 -2.15900092,-2.73473 -1.51130065,-2.30294 -2.37490098,-5.10964 -0.2878668,-0.93556 -0.5037669,-1.79916 -0.1439334,-0.8636 -0.3598335,-1.79917 -0.2878668,-1.22344 -0.4318002,-2.44687 -0.071967,-1.2954 -0.2159001,-2.51883 -0.071967,-0.57574 -0.071967,-1.0795 -0.071967,-0.50377 -0.071967,-1.079502 0,-1.007534 0,-2.015068 0,-1.0795 0.071967,-2.087034 0.071967,-0.8636 0.1439334,-1.655234 0.1439334,-0.8636 0.2878668,-1.727201 0.1439334,-0.575733 0.2159001,-1.223434 0.071967,-0.6477 0.2159001,-1.223433 0.2878668,-1.295401 0.6477003,-2.518835 0.4318001,-1.2954 0.93556703,-2.518834 0.79163367,-2.015068 1.79916744,-3.742269 0.93556703,-1.655234 2.01506753,-3.022601 1.1514672,-1.367367 2.5908011,-2.590801 1.8711342,-1.511301 4.0301351,-2.015067 2.3749008,-0.503767 4.8217688,0.359833 2.087034,0.791634 3.454401,2.230968 1.439334,1.439334 2.446868,3.382434 0.935567,1.943101 1.295401,4.174069 0.143933,0.575733 0.287866,1.151467 0.143934,0.575734 0,1.151467 z"
           id="path779"
           style="font-size:71.9667px;font-family:Sorinka;-inkscape-font-specification:Sorinka;stroke-width:0.264583" /><path
           d="m 53.672587,97.689037 q 1.583268,-1.439334 0.935567,-3.166534 l -0.2159,-0.647701 q -0.359833,-0.935567 0.2159,-1.943101 0.143934,-0.287866 0.359834,-0.287866 0.2159,-0.07197 0.503767,-0.143934 0.791633,-0.143933 1.367367,0.287867 1.439334,0.935567 2.806701,2.302934 0.575734,0.575734 0.503767,1.223434 0,0.575734 -0.503767,1.151467 -0.143933,0.143934 -0.287867,0.287867 -0.143933,0.07197 -0.287866,0.143934 -0.503767,0.287866 -0.935567,0.8636 -0.359834,0.4318 -0.719667,0.935567 -0.287867,0.4318 -0.647701,0.935567 -0.287867,0.359834 -0.575733,0.719672 -0.287867,0.35983 -0.647701,0.71966 -0.575733,0.50377 -0.791633,1.15147 -0.143934,0.57573 0,1.36737 0.143933,0.71966 0.2159,1.43933 0.07197,0.71967 0.07197,1.43933 0,0.35984 0,0.6477 0.07197,0.2159 0.07197,0.50377 0,0.35984 0,0.6477 0,0.28787 -0.07197,0.57574 0,0.35983 -0.07197,0.79163 0,0.4318 0,0.79163 -0.143934,0.8636 -0.359834,1.7272 -0.143933,0.79164 -0.4318,1.65524 -0.287867,0.79163 -0.6477,1.58326 -0.287867,0.79164 -0.719667,1.58327 -0.8636,1.58327 -2.015068,2.87867 -1.151467,1.2954 -2.734734,2.30293 -1.583267,1.00754 -3.238502,1.43934 -1.151467,0.35983 -2.662767,0.50377 -1.511301,0.2159 -3.022602,0 -3.670301,-0.4318 -6.117169,-3.45441 -0.791634,-0.8636 -1.367367,-1.87113 -0.503767,-1.00753 -1.007534,-2.01507 -0.791634,-1.65523 -1.295401,-3.6703 -0.791633,-2.95063 -0.6477,-5.90127 0.07197,-1.2954 0.4318,-2.73473 0.431801,-2.44687 1.511301,-4.677839 0.935567,-2.015067 2.374901,-3.886201 0.791634,-0.863601 1.583267,-1.583268 0.863601,-0.791633 1.871135,-1.367367 1.655234,-1.007534 3.670301,-1.583267 1.655234,-0.503767 3.166535,-0.575734 1.367367,-0.143933 2.518834,0.07197 0.791634,0.143933 1.511301,0.4318 0.719667,0.287867 1.439334,0.6477 2.446868,1.511301 4.030135,4.246036 0.143933,0.359833 0.359833,0.6477 0.2159,0.287867 0.359834,0.6477 0,0.07197 0.143933,0.2159 z m -11.298771,1.871134 q -0.143934,0.287867 -0.2159,0.359834 -0.143934,0.503765 -0.287867,1.007535 -0.07197,0.4318 -0.2159,0.93557 -0.143934,0.4318 -0.2159,0.93556 0,0.4318 -0.143934,0.8636 -0.07197,0.57574 -0.143933,1.22344 -0.07197,0.6477 -0.143934,1.22343 -0.07197,1.0795 -0.07197,2.159 0,1.0795 0.143933,2.159 0.143934,0.57574 0.143934,1.22344 0.07197,0.57573 0.2159,1.15146 0.143933,0.6477 0.2159,1.36737 0.143933,0.6477 0.359833,1.2954 0.2159,0.79164 0.4318,1.65524 0.215901,0.79163 0.503767,1.58326 0.2159,0.71967 0.647701,1.22344 0.4318,0.57573 1.151467,0.28786 0.2159,-0.072 0.4318,-0.2159 0.2159,-0.072 0.359833,-0.2159 0.503767,-0.35983 0.935568,-0.71966 0.4318,-0.35984 0.8636,-0.71967 1.727201,-1.5113 2.806701,-3.52637 1.007534,-1.87113 1.367367,-4.24603 0,-0.35984 0,-0.57574 0.07197,-0.28786 0.07197,-0.6477 0.07197,-0.71966 0.07197,-1.36736 0,-0.71967 0,-1.43934 0,-0.57573 -0.07197,-1.00753 -0.07197,-0.50377 -0.07197,-1.0795 -0.143933,-0.93557 -0.791633,-1.00754 -0.143934,-0.072 -0.575734,-0.072 -0.143933,0 -0.2159,0.072 -0.07197,0 -0.2159,0 -0.6477,0 -1.295401,0 -0.6477,0 -1.223434,-0.14393 -0.791633,-0.072 -1.7272,-0.57573 -0.935567,-0.50377 -1.583268,-1.15147 -0.6477,-0.71967 -1.223433,-1.583268 -0.07197,-0.143934 -0.143934,-0.215901 0,-0.07197 -0.143933,-0.2159 z m 7.988303,0.143934 q -0.143933,-0.791634 -0.503767,-1.439334 -0.359833,-0.719667 -0.791633,-1.367367 -0.791634,-1.151468 -1.943101,-1.511301 -0.4318,-0.143933 -0.863601,0 -0.4318,0.07197 -0.6477,0.6477 0,0.07197 -0.07197,0.143934 -0.143933,0.359833 -0.143933,0.791633 0,0.4318 0.2159,0.791634 0.6477,1.151467 1.655234,1.727201 1.079501,0.575735 2.374901,0.359833 0.287867,0 0.719667,-0.143933 z"
           id="path781"
           style="font-size:71.9667px;font-family:Sorinka;-inkscape-font-specification:Sorinka;stroke-width:0.264583" /><path
           d="m 62.164667,86.390266 q -0.287867,-0.07197 -0.575734,-0.143934 -0.2159,-0.07197 -0.4318,-0.143933 -0.143933,0 -0.287867,-0.143933 -0.8636,-0.431801 -0.719667,-1.295401 0,-0.143933 -0.07197,-0.359834 0,-0.2159 0.07197,-0.359833 0,-0.2159 0.07197,-0.359834 0.07197,-0.2159 0.143934,-0.359833 0.287866,-0.575734 1.007533,-0.575734 1.223434,0 2.302935,0 1.151467,-0.07197 2.302934,-0.143933 0.791634,-0.07197 1.439334,-0.07197 0.719667,-0.07197 1.511301,-0.07197 0.575733,-0.07197 1.007533,-0.07197 0.503767,0 1.079501,0 0.2159,0 0.2159,0 0.359833,0.143933 0.719667,0.07197 0.4318,-0.07197 0.8636,0 0.4318,0 0.935567,0.359833 0.575734,0.575734 0.431801,1.439334 0,1.223434 -1.583268,1.367367 h -0.359833 q -0.07197,0.07197 -0.143934,0.07197 -0.359833,1.727201 -0.6477,3.526368 -0.2159,1.727201 -0.503767,3.526368 0.143934,0 0.359834,-0.2159 1.223434,-0.8636 2.302934,-1.151467 1.367367,-0.4318 3.094568,-0.287867 1.223434,0 2.159001,0.287867 2.015067,0.575734 3.310468,1.871134 0.6477,0.575734 1.367367,1.511301 0,0 0.143934,0.143933 0.143933,-0.4318 0.143933,-0.6477 0.6477,-2.590801 1.511301,-5.181602 0.359833,-1.007534 0.791633,-1.943101 0.431801,-0.935567 1.007534,-1.871134 1.151467,-2.087034 2.806701,-3.310468 1.799168,-1.295401 4.102102,-1.151467 1.007534,0.07197 1.871134,0.287866 0.863601,0.2159 1.655234,0.791634 2.446865,1.511301 3.886195,4.246035 0.93557,1.943101 1.5113,4.102102 0.4318,1.655234 0.6477,3.526368 0.14394,1.079501 0.2159,2.230968 0.072,1.0795 0.14394,2.159001 0,1.223434 0,2.518843 0.072,1.2954 0.072,2.5908 -0.072,1.43933 -0.072,2.87866 0,1.36737 -0.072,2.80671 -0.072,1.2954 -0.14393,2.66276 0,1.2954 -0.072,2.5908 0,0.4318 -0.072,0.8636 0,0.35984 0.072,0.79164 0,0.57573 0,1.22343 0,0.57574 0.14393,1.15147 0.072,0.4318 0.21591,0.8636 0.2159,0.4318 0.57573,0.79163 0.50377,0.50377 1.0795,0.4318 h 1.00753 q 0.93557,0 1.22344,0.93557 l 0.2159,1.0795 q 0,0.35983 0,0.6477 0.072,0.35983 0.072,0.71967 0,0.28787 -0.14393,0.8636 -0.28787,0.71967 -1.15147,0.8636 -0.57573,0.072 -1.15146,0.072 -0.57574,0 -1.15147,0 -0.6477,0 -1.2954,-0.072 -0.6477,-0.072 -1.2954,-0.28787 -2.590801,-0.6477 -4.102101,-2.87867 -0.719667,-1.22343 -1.151467,-2.66276 -0.359834,-1.0795 -0.503767,-2.159 -0.07197,-1.0795 -0.143934,-2.23097 v -2.30294 q 0,-0.57573 0,-1.00753 0.07197,-0.50377 0.07197,-1.0795 0,-0.50377 0,-0.93557 0.07197,-0.50376 0.07197,-1.00753 0,-1.15147 0,-2.23097 0.07197,-1.15147 0.143933,-2.30293 0,-1.9431 -0.2159,-3.81424 0,-0.35983 -0.07197,-0.575736 -0.07197,-0.791633 -0.143933,-1.439334 0,-0.719667 -0.143933,-1.5113 0,-0.287867 -0.07197,-0.575734 0,-0.287867 0,-0.575734 -0.07197,-0.6477 -0.143934,-1.2954 0,-0.6477 -0.143933,-1.223434 -0.143933,-0.719667 -0.2159,-1.367367 -0.07197,-0.719667 -0.359834,-1.367368 -0.07197,-0.287866 -0.359833,-0.8636 -0.359833,-0.359833 -0.719667,-0.4318 0,0 -0.359833,0 -0.431801,0.2159 -0.791634,0.575734 -0.287867,0.359833 -0.575734,0.719666 -0.791633,1.151468 -1.223434,2.374902 -0.791633,2.015067 -1.223433,3.814234 -0.143934,0.791634 -0.359834,1.583268 -0.143933,0.791634 -0.287867,1.583267 l -0.4318,2.806706 -0.4318,3.6703 q -0.143933,1.36737 -0.2159,2.66277 -0.07197,1.2954 -0.2159,2.66277 0,0.28786 -0.07197,0.50376 0,0.2159 0,0.50377 0,0.35983 -0.6477,0.57573 -0.287867,0.072 -1.007534,0.072 -0.4318,-0.072 -0.935567,-0.072 -0.4318,-0.072 -0.8636,-0.2159 -0.359834,0 -0.503767,-0.35983 0,-0.14393 -0.07197,-0.14393 0,-0.072 0,-0.2159 -0.143933,-0.57574 -0.2159,-1.0795 -0.07197,-0.50377 -0.07197,-1.0795 -0.07197,-0.71967 -0.143933,-1.36737 0,-0.6477 -0.07197,-1.36737 0,-0.35983 0,-0.6477 0,-0.28787 -0.07197,-0.6477 -0.07197,-0.57573 -0.143933,-1.22343 0,-0.6477 -0.143933,-1.22344 -0.215901,-2.30293 -0.863601,-4.318003 -0.2159,-0.791633 -0.575733,-1.583267 -0.287867,-0.791634 -0.791634,-1.439334 -0.935567,-1.439334 -2.446868,-1.727201 -0.2159,-0.07197 -0.719667,-0.07197 -2.878668,-0.07197 -4.389968,2.302934 -0.863601,1.2954 -1.367368,3.094568 -0.287866,0.791633 -0.4318,1.655233 -0.07197,0.79163 -0.2159,1.58327 -0.2159,1.9431 -0.2159,4.03013 v 3.31047 q 0,1.00753 0.07197,2.08703 0.07197,1.00754 0.2159,2.01507 l 0.2159,2.159 0.2159,1.2954 q 0.143933,0.50377 0.503767,0.6477 0.719667,0.28787 0.8636,1.15147 0.2159,0.79163 -0.07197,1.5113 -0.503767,0.79163 -1.223434,1.00753 -0.4318,0.14394 -0.863601,0.072 -0.359833,0 -0.791633,0 H 68.56967 q -1.223434,-0.072 -2.518834,-0.14393 -1.223434,0 -2.446868,0 -0.4318,0 -0.8636,0 -0.359834,0 -0.791634,-0.072 -0.6477,0 -1.007534,-0.072 -0.143933,0 -0.359833,-0.072 -0.2159,0 -0.359834,0 -1.151467,0 -1.943101,-0.79164 -0.2159,-0.2159 -0.2159,-0.35983 -0.2159,-1.00753 0.143934,-1.65523 0.287866,-0.8636 1.367367,-0.8636 0.287867,0.072 0.8636,0.072 H 60.5814 q 0.07197,-0.072 0.07197,-0.14393 -0.143933,-1.00753 -0.2159,-1.9431 -0.07197,-1.00754 -0.143933,-2.01507 -0.07197,-0.6477 -0.07197,-1.2954 0,-0.71967 0,-1.36737 -0.07197,-0.8636 -0.07197,-1.65523 0,-0.8636 0,-1.7272 0,-1.00754 0,-2.08704 0.07197,-1.0795 0.07197,-2.159 0.07197,-1.00753 0.07197,-1.87113 0.07197,-0.93557 0.143933,-1.87113 0.143934,-0.93557 0.143934,-1.79917 0.07197,-0.935567 0.2159,-1.871135 0.07197,-1.007533 0.143933,-1.9431 0.07197,-1.007534 0.143934,-2.015068 0.143933,-0.791634 0.2159,-1.511301 0.07197,-0.791633 0.2159,-1.583267 0.143933,-0.6477 0.2159,-1.2954 0.07197,-0.647701 0.2159,-1.367368 0.07197,-0.143933 0.2159,-0.575733 z"
           id="path783"
           style="font-size:71.9667px;font-family:Sorinka;-inkscape-font-specification:Sorinka;stroke-width:0.264583" /><g
           aria-label="tori"
           id="text431"
           style="font-size:71.9667px;font-family:Sorinka;-inkscape-font-specification:Sorinka;stroke-width:0.264583"><path
             d="m 132.4092,106.82881 q -0.28787,-0.14394 -0.35984,-0.14394 -0.79163,-0.072 -1.79916,-0.71966 -0.79164,-0.50377 -0.71967,-1.2954 0.2159,-0.8636 0.93557,-0.8636 0.93556,0 1.79916,0 0.93557,0 1.87114,0.14393 0.28786,0 0.50376,0.072 0.28787,0 0.6477,0.072 0.35984,0.072 0.64771,0.14394 0.35983,0 0.71966,0.072 0.79164,0.14394 1.15147,0.57574 0.4318,0.4318 0.28787,1.15146 -0.072,0.71967 -0.8636,0.8636 -0.4318,0.072 -0.6477,0.57574 -0.28787,0.79163 -0.57574,1.5113 -0.2159,0.71967 -0.57573,1.43933 -0.57574,1.2954 -1.0795,2.5908 -0.50377,1.2954 -1.0795,2.5908 -0.79164,1.94311 -2.159,3.31047 -1.00754,0.8636 -2.23097,1.2954 -2.66277,0.6477 -5.10964,0.14394 -4.24603,-1.00754 -6.54897,-4.38997 -1.36736,-1.9431 -2.01506,-4.318 -0.35984,-1.00754 -0.71967,-2.01507 -0.28787,-1.0795 -0.6477,-2.08704 -0.79163,-2.87866 -1.00753,-5.3975 -0.072,-1.00753 -0.14394,-2.01507 -0.072,-1.079496 -0.14393,-2.08703 -0.072,-1.583267 -0.14393,-3.094568 0,-1.5113 0,-3.094568 0,-1.151467 0,-2.230967 0.072,-1.151468 0.072,-2.302935 v -0.2159 q -0.072,-0.503767 -0.2159,-0.575733 -0.072,-0.143934 -0.57573,-0.07197 -0.35984,0 -0.71967,0 -0.28787,0 -0.57573,-0.2159 -0.6477,-0.359834 -0.79164,-1.079501 -0.072,-0.791633 0.50377,-1.2954 0.35983,-0.359834 0.71967,-0.503767 0.4318,-0.143934 0.79163,-0.287867 0.14393,0 0.28787,-0.07197 0.28787,0 0.28787,-0.359833 0,-0.575734 0.072,-1.151467 0.072,-0.575734 0.072,-1.151467 0.072,-1.367368 0.072,-2.734735 0,-1.367367 0.072,-2.806701 0,-0.359834 0,-0.6477 0.072,-0.287867 0.072,-0.647701 0.072,-0.359833 0,-0.4318 0,-0.07197 -0.35983,-0.2159 -0.14394,-0.07197 -0.28787,-0.07197 -0.072,-0.07197 -0.2159,-0.143933 -0.28787,-0.287867 -0.35984,-0.4318 -0.35983,-1.223434 0.072,-2.159001 0.4318,-0.719667 1.15147,-0.719667 1.00753,-0.07197 2.01507,-0.2159 1.0795,-0.2159 2.08703,-0.359834 0.79163,-0.143933 1.5113,-0.2159 0.71967,-0.07197 1.43933,-0.2159 0.50377,-0.07197 1.00754,-0.143933 0.50377,-0.07197 1.00753,-0.07197 0.4318,-0.07197 0.8636,-0.07197 0.4318,0 0.8636,0 1.15147,-0.07197 1.2954,1.295401 0.14394,0.4318 -0.072,0.791634 -0.28787,0.935567 -1.36737,1.0795 -0.35983,0.07197 -0.4318,0.143933 -0.072,0.07197 -0.14393,0.431801 -0.072,0.6477 -0.2159,1.2954 -0.072,0.6477 -0.14394,1.295401 -0.072,0.6477 -0.14393,1.367367 0,0.6477 -0.072,1.367367 0,1.007534 -0.072,2.015068 0,1.007533 -0.072,2.015067 v 0.719667 q 0.072,0.503767 0.57573,0.575734 h 0.4318 3.8862 q 0.35984,0 0.93557,0.143933 0.93557,0.4318 0.93557,1.439334 0,0.791634 -0.93557,1.295401 -0.35983,0.143933 -0.79163,0.2159 -0.4318,0.07197 -0.79164,0.143933 -0.93556,0.143934 -1.87113,0.2159 -0.93557,0 -1.87113,0 -0.6477,0 -0.79164,0.791634 0,1.007534 -0.072,2.015068 0,0.935567 0,1.9431 -0.072,1.439334 -0.072,2.878668 0,1.367368 0,2.806701 0.072,1.439334 0.072,2.950635 0,1.511301 0.14393,3.022611 0.072,1.36736 0.2159,2.73473 0.14393,1.2954 0.28787,2.5908 0.072,0.71967 0.14393,1.36737 0.072,0.6477 0.14393,1.2954 l 0.2159,0.6477 q 0.2159,1.0795 0.50377,2.08703 0.35983,1.00754 0.93557,1.87114 0.71966,1.00753 1.7272,1.65523 1.00753,0.35984 1.79917,0.28787 0.35983,-0.072 0.6477,-0.35984 0.8636,-0.8636 1.58326,-2.30293 1.0795,-2.23097 1.79917,-4.9657 0.14393,-0.57574 0.35983,-1.15147 0.2159,-0.57573 0.35984,-1.22343 z"
             id="path786" /><path
             d="m 148.0979,90.996134 q 1.65523,-1.007534 3.6703,-1.583268 0.79163,-0.2159 1.58327,-0.359833 0.79163,-0.143933 1.58327,-0.2159 1.43933,-0.143933 2.51883,0.07197 1.65523,0.359833 2.95063,1.0795 2.44687,1.511301 4.03014,4.246035 0.35983,0.575734 0.71967,1.367367 l 0.14393,0.143934 q 1.65523,-1.511301 0.93557,-3.166535 l -0.2159,-0.6477 q -0.35984,-0.935567 0.2159,-1.943101 0.14393,-0.287867 0.35983,-0.287867 0.28787,-0.07197 0.50377,-0.143933 0.79163,-0.143934 1.36736,0.287867 0.79164,0.503767 1.43934,1.0795 0.71967,0.575734 1.43933,1.223434 0.57574,0.575734 0.50377,1.223434 -0.072,0.575733 -0.50377,1.151467 -0.14393,0.143933 -0.35983,0.287867 -0.14393,0.07197 -0.28787,0.143933 -0.57573,0.359834 -0.8636,0.863601 -0.79163,0.935567 -1.43933,1.871134 -0.28787,0.359833 -0.57574,0.719667 -0.28786,0.359833 -0.6477,0.719667 -0.57573,0.503767 -0.79163,1.151466 -0.14393,0.57573 0,1.36737 0.14393,0.71966 0.2159,1.43933 0.072,0.71967 0.072,1.43933 0,0.35984 0,0.6477 0.072,0.2159 0.072,0.50377 v 1.22343 q -0.072,0.4318 -0.072,0.8636 0,0.35984 -0.072,0.71967 -0.14393,0.8636 -0.35983,1.7272 -0.14394,0.79164 -0.4318,1.65524 -0.28787,0.79163 -0.6477,1.58326 -0.28787,0.79164 -0.71967,1.58327 -1.65523,3.2385 -4.67784,5.1816 -1.58326,1.00754 -3.31046,1.43934 -1.15147,0.35983 -2.59081,0.50376 -1.58326,0.2159 -3.09456,0 -3.6703,-0.4318 -6.11717,-3.4544 -0.79164,-0.8636 -1.36737,-1.87113 -0.50377,-1.00754 -1.00753,-2.01507 -0.35984,-0.8636 -0.71967,-1.79917 -0.35983,-0.93556 -0.57573,-1.87113 -0.79164,-3.0226 -0.57574,-5.90127 0,-0.71967 0.072,-1.36737 0.14393,-0.6477 0.28787,-1.36736 0.2159,-1.22344 0.57573,-2.37491 0.4318,-1.15146 1.00753,-2.302927 0.50377,-1.007534 1.00754,-1.943101 0.57573,-1.007533 1.36736,-1.943101 1.43934,-1.7272 3.38244,-2.950634 z m -3.52637,20.078706 q 1.00753,0 1.9431,-0.14393 0.93557,-0.14393 1.9431,-0.28787 -0.072,-0.35983 -0.14393,-0.71966 0,-0.4318 0,-0.79164 -1.00753,0.14394 -1.9431,0.28787 -0.93557,0.072 -1.9431,0.14393 0.072,0.35984 0.072,0.79164 0.072,0.35983 0.072,0.71966 z m 4.24604,1.79917 q -0.072,-0.14393 -0.072,-0.28787 0,-0.14393 -0.072,-0.28786 0,-0.35984 -0.072,-0.57574 -1.94311,0.4318 -3.88621,0.4318 0.072,0.14394 0.072,0.35984 0,0.14393 0.072,0.35983 z m 8.4201,-18.639375 q -0.35983,0.935567 0,1.583268 0.71967,1.151467 1.7272,1.7272 1.00753,0.575734 2.30293,0.359834 0.2159,0 0.35984,0 0.2159,-0.07197 0.4318,-0.143934 -0.14394,-0.791633 -0.57574,-1.439334 -0.35983,-0.719667 -0.79163,-1.367367 -0.79163,-1.151467 -1.9431,-1.5113 -0.4318,-0.143934 -0.8636,0 -0.35983,0.07197 -0.6477,0.6477 z m -4.5339,9.931405 q -0.072,1.0795 -0.072,2.159 0,1.0795 0.14393,2.159 0.072,0.57573 0.072,1.22344 0.072,0.57573 0.2159,1.15146 0.14393,0.6477 0.28787,1.36737 0.14393,0.6477 0.28786,1.2954 0.2159,0.79163 0.4318,1.65523 0.28787,0.79164 0.50377,1.58327 0.2159,0.71967 0.6477,1.22344 0.4318,0.57573 1.15147,0.28786 0.50377,-0.14393 0.79163,-0.4318 0.50377,-0.35983 0.93557,-0.71966 0.4318,-0.35984 0.93557,-0.71967 1.79916,-1.58327 2.73473,-3.52637 1.00754,-1.87113 1.36737,-4.24604 0.072,-0.35983 0.072,-0.57573 0,-0.28787 0.072,-0.6477 0,-0.71967 0,-1.36737 0.072,-0.71966 0,-1.43933 0,-0.57573 -0.072,-1.00753 -0.072,-0.50377 -0.072,-1.0795 0,-0.8636 -0.79163,-1.00754 -0.14394,-0.072 -0.50377,-0.072 -0.14394,0 -0.28787,0.072 -0.072,0 -0.2159,0 -0.6477,0 -1.2954,0 -0.57573,0 -1.22343,-0.14393 -0.8636,-0.072 -1.65524,-0.57574 -1.7272,-0.935562 -2.87867,-2.73473 -0.072,-0.143933 -0.14393,-0.2159 0,-0.07197 -0.14393,-0.2159 -0.14394,0.287867 -0.14394,0.359834 -0.14393,0.503766 -0.28786,1.007533 -0.14394,0.4318 -0.28787,0.935567 -0.14393,0.431796 -0.2159,0.935566 0,0.4318 -0.072,0.8636 -0.14393,0.57574 -0.2159,1.22344 -0.072,0.6477 -0.072,1.22343 z m -3.4544,-3.8862 q 0.8636,-4.246037 3.16653,-7.700439 -0.79163,0.359834 -1.87113,1.079501 -1.43934,0.935567 -2.5908,1.9431 -1.15147,0.935568 -2.01507,2.302935 0,0 -0.072,0.07197 l -0.28787,1.007533 q -0.14393,0.4318 -0.28786,0.935567 -0.14394,0.431793 -0.28787,0.935563 -0.072,0.28787 -0.14393,0.50377 0,0.2159 -0.072,0.50377 -0.14393,0.57573 -0.14393,0.93556 -0.14394,0.71967 -0.14394,1.00754 -0.072,0.35983 -0.072,0.93556 -0.14394,1.00754 -0.14394,1.9431 0,0.8636 0.072,1.7272 1.00753,0 1.9431,-0.072 0.93557,-0.14394 1.9431,-0.28787 -0.14393,-1.5113 0,-3.0226 0.072,-0.2159 0.072,-0.79163 0.072,-0.2159 0.072,-0.35984 0,-0.2159 0.072,-0.4318 0.072,-0.2159 0.072,-0.4318 0,-0.2159 0.072,-0.4318 0.072,-0.14393 0.072,-0.35983 0,-0.2159 0.14394,-0.4318 0.14393,-0.35983 0.2159,-0.71967 0.072,-0.4318 0.2159,-0.79163 z"
             style="font-family:'Sorinka Carved';-inkscape-font-specification:'Sorinka Carved'"
             id="path788" /><path
             d="m 181.77832,105.74931 v 1.15146 q 0.072,0.6477 0.072,1.2954 0.072,0.6477 0.14393,1.22344 0.072,1.00753 0.14394,1.9431 0.072,0.8636 0.14393,1.79917 0.072,0.35983 0.072,1.0795 0.072,0.71966 0.14393,1.43933 0.072,0.6477 0.14393,1.36737 0,0.35983 0.4318,0.35983 0.072,-0.072 0.2159,-0.072 0.6477,-0.28787 1.43934,0.072 0.79163,0.35984 0.93556,1.36737 0.14394,1.00753 -0.50376,1.5113 -0.57574,0.50377 -1.36737,0.57573 -0.79163,0.072 -1.58327,0.14394 -0.71966,0.072 -1.5113,0.14393 -0.6477,0.072 -1.2954,0.072 -0.57573,0.072 -1.22343,0.072 -1.0795,0.14394 -2.159,0.14394 -1.00754,0.072 -2.08704,0.14393 -0.57573,0.072 -1.0795,0.072 -0.4318,0 -0.93556,0 -0.93557,-0.14394 -1.58327,-0.6477 -0.28787,-0.14394 -0.28787,-0.4318 -0.14393,-0.28787 -0.14393,-0.57574 0,-0.28786 0.072,-0.6477 0.14394,-0.50376 0.57574,-0.79163 0.4318,-0.28787 0.93557,-0.28787 h 1.00753 0.072 q 0,-0.2159 -0.072,-0.50376 0,-0.2159 0,-0.4318 -0.072,-0.79164 -0.14393,-1.65524 -0.072,-0.8636 -0.14394,-1.65523 l -0.4318,-5.18161 q -0.14393,-1.00753 -0.2159,-2.01506 0,-1.0795 -0.14393,-2.08704 -0.072,-0.79163 -0.072,-1.58326 0,-0.79164 -0.072,-1.58327 -0.072,-1.0795 -0.072,-2.159003 0,-1.151467 -0.072,-2.230967 -0.14393,-1.223434 -0.14393,-2.302934 0,-1.151468 0,-2.374902 V 88.9091 q 0,-0.863601 0,-1.655234 0,-0.863601 0.072,-1.727201 0.072,-1.079501 0.072,-2.159001 0.072,-1.079501 0.2159,-2.159001 0,-0.359834 0,-0.719667 0.072,-0.359834 0.072,-0.719667 0.072,-0.503767 0.072,-0.935567 0.072,-0.503767 0.2159,-1.007534 0.14393,-0.719667 0.2159,-1.439334 0.14393,-0.719667 0.28786,-1.439334 0,-0.143933 0.072,-0.2159 h -0.28787 q -0.71967,-0.07197 -1.58327,-0.719667 -0.2159,-0.2159 -0.2159,-0.359833 -0.28786,-0.719667 -0.072,-1.583268 0.072,-0.359833 0.4318,-0.6477 0.35983,-0.359833 0.79163,-0.359833 1.0795,0 2.159,-0.07197 1.15147,-0.07197 2.23097,-0.2159 0.79163,-0.07197 1.5113,-0.07197 0.79163,-0.07197 1.58327,-0.143933 l 2.5908,-0.2159 q 0.57573,0 1.0795,0 0.50377,0 1.0795,0.07197 0.93557,0.143934 1.22343,0.935567 0.35984,0.791634 0,1.439334 -0.35983,0.647701 -1.15146,0.791634 -0.4318,0 -0.6477,0.07197 -0.2159,0 -0.2159,0.2159 l -0.2159,1.727201 q -0.14394,0.575733 -0.2159,1.0795 0,0.4318 -0.14394,0.935567 0,0.503767 -0.072,0.791634 -0.072,0.287867 -0.072,0.575733 0,0.2159 -0.072,0.575734 v 0.2159 q 0.14394,-0.143933 0.2159,-0.143933 1.9431,-2.087035 4.03014,-3.526369 0.8636,-0.575733 1.79917,-1.007533 0.93556,-0.431801 1.9431,-0.719667 1.58326,-0.503767 2.95063,-0.287867 2.66277,0.4318 3.52637,2.878668 0.50377,1.5113 0.50377,3.310468 0.072,1.223434 0,2.374901 -0.072,0.575733 -0.14394,1.151467 0,0.503767 -0.14393,1.079501 -0.072,0.4318 -0.14393,0.8636 -0.072,0.4318 -0.2159,0.8636 -0.2159,0.935567 -0.50377,1.871134 -0.28787,0.863601 -0.6477,1.799168 -0.57573,1.439334 -1.15147,2.734734 -1.2954,2.806702 -3.38243,5.325536 -1.87114,2.230962 -4.31801,3.598332 -0.072,0.072 -0.14393,0.072 0,0 -0.072,0.072 0,0.14393 0.072,0.14393 0.072,0 0.14393,0.072 0.79164,0.35983 1.43934,0.79163 0.71967,0.35983 1.36737,0.93557 0.28786,0.14393 0.50376,0.35983 0.2159,0.2159 0.50377,0.4318 0.072,0.072 0.14393,0.072 0.072,0 0.14394,0.072 0.14393,0.14394 0.2159,0.2159 0.072,0 0.14393,0.14394 0.71967,0.4318 1.36737,0.8636 0.71966,0.4318 1.36736,1.00753 0.28787,0.28787 0.50377,0.57573 0.28787,0.2159 0.4318,0.57574 0.2159,-0.14394 0.35984,-0.28787 0.14393,-0.2159 0.28786,-0.35983 0.28787,-0.28787 0.57574,-0.50377 0.28786,-0.28787 0.6477,-0.50377 0.71966,-0.35983 1.36736,-0.072 0.8636,0.2159 0.8636,1.15146 0.072,0.79164 0.072,1.51131 0.072,0.6477 0.072,1.43933 0.072,0.79163 0,1.58327 0,0.71966 -0.14394,1.5113 0,0.4318 -0.35983,0.93556 -0.50377,0.57574 -1.0795,0.79164 -0.28787,0.14393 -0.50377,0 -0.57573,-0.072 -1.15146,-0.57574 -0.35984,-0.28786 -0.50377,-0.71966 -0.14393,-0.57574 -0.50377,-1.00754 -0.35983,-0.4318 -0.8636,-0.79163 -1.9431,-1.36737 -3.74227,-2.3749 -0.57573,-0.35983 -1.15146,-0.71967 -0.57574,-0.35983 -1.15147,-0.71967 -0.28787,-0.14393 -0.57573,-0.2159 -0.2159,-0.072 -0.43181,-0.2159 -0.57573,-0.28786 -1.0795,-0.50376 -0.4318,-0.2159 -1.00753,-0.50377 -0.57573,-0.35983 -1.22343,-0.6477 -0.6477,-0.35983 -1.22344,-0.71967 -0.14393,0 -0.2159,-0.072 z m -0.4318,-6.189139 q 0.4318,0 0.57574,-0.07197 1.7272,-0.287867 3.16653,-1.151467 2.44687,-1.655234 4.17407,-4.389969 0.35983,-0.6477 0.71967,-1.2954 0.35983,-0.6477 0.6477,-1.367367 0.35983,-0.719667 0.57573,-1.439334 0.28787,-0.719667 0.57573,-1.439334 0.28787,-0.647701 0.4318,-1.223434 0.2159,-0.6477 0.35984,-1.295401 0.2159,-0.6477 0.28786,-1.2954 0.14394,-0.719667 0.2159,-1.367368 0.072,-0.359833 0.072,-0.719666 0,-0.359834 0.072,-0.719667 0.072,-0.719667 0,-1.367368 0,-0.6477 -0.14394,-1.367367 -0.28786,-1.583267 -1.9431,-1.223434 -0.35983,0.07197 -0.79163,0.287867 -0.35983,0.143933 -0.71967,0.359833 -1.9431,1.151468 -3.74227,2.806702 -1.22343,1.223434 -2.23096,2.518834 -1.00754,1.295401 -1.79917,2.806701 -0.14393,0.2159 -0.28787,0.4318 -0.072,0.215901 -0.072,0.431801 0,1.151467 -0.072,2.302934 0,1.151467 0,2.302934 0,0.503767 -0.072,1.007534 0,0.4318 0,0.935567 v 5.325536 z"
             id="path790" /><path
             d="m 212.93986,121.86985 q 0.35984,0 0.50377,-0.072 1.22344,-0.2159 1.65524,0.6477 0.50376,0.8636 0.28786,1.7272 -0.35983,1.22344 -1.9431,1.22344 -1.65523,0.072 -3.38243,0.072 -1.7272,0 -3.38244,0 h -1.87113 l -1.9431,-0.2159 q -0.79164,-0.072 -1.2954,-0.6477 -0.28787,-0.28787 -0.28787,-1.0795 0.072,-0.35983 0.14393,-0.71967 0.072,-0.28786 0.4318,-0.50376 0.35984,-0.28787 0.8636,-0.28787 h 1.00754 q 0,-0.57573 -0.072,-0.8636 -0.072,-0.50377 -0.14393,-1.00753 0,-0.4318 -0.072,-1.00754 -0.072,-0.8636 -0.14393,-1.7272 -0.072,-0.79163 -0.14394,-1.65523 -0.072,-1.58327 -0.14393,-3.09457 0,-1.5113 0,-3.09457 0,-1.43933 0.072,-2.8067 0.072,-1.43933 0.14393,-2.87867 0.072,-0.35983 0.072,-0.6477 0,-0.28786 0,-0.57573 0.072,-1.22343 0.072,-2.30294 0.072,-1.151463 0.2159,-2.30293 0.14394,-0.935567 0.2159,-1.799167 0.14394,-0.935567 0.28787,-1.871134 l 0.2159,-1.727201 q -0.14393,-0.07197 -0.28787,-0.07197 -0.14393,0 -0.28786,-0.07197 -1.2954,-0.2159 -1.36737,-1.5113 0,-0.359834 0,-0.6477 0.072,-0.287867 0.28787,-0.647701 0.28786,-0.4318 0.79163,-0.4318 1.0795,-0.07197 2.159,-0.07197 1.15147,-0.07197 2.23097,-0.143933 0.79163,-0.07197 1.58327,-0.07197 0.79163,-0.07197 1.58326,-0.143933 0.8636,-0.07197 1.7272,-0.07197 0.86361,0 1.79917,0 1.15147,0.143934 1.22344,1.367367 0,1.151468 -1.22344,1.367368 h -0.71966 q -0.072,0.287867 -0.14394,0.503767 0,0.2159 -0.072,0.503766 l -0.43181,3.238502 q -0.2159,1.439334 -0.35983,2.950634 -0.072,1.439325 -0.2159,2.878665 -0.14393,1.65523 -0.2159,3.2385 -0.072,1.51131 -0.072,3.09458 0,0.71966 -0.072,1.43932 0,0.6477 0,1.36737 0.072,1.65523 0.072,3.38243 0.072,1.7272 0.2159,3.38244 0.072,1.00753 0.14394,2.01507 0.072,1.0795 0.2159,2.08703 0,0.072 0,0.072 0.072,0.072 0.072,0.2159 z M 208.9817,86.030432 q -1.0795,0.07197 -2.01507,-0.287867 -0.93557,-0.4318 -1.65524,-1.079501 -0.6477,-0.719667 -1.0795,-1.655234 -0.4318,-1.007533 -0.4318,-2.087034 0,-2.302934 1.43934,-3.742268 1.43933,-1.511301 3.74227,-1.511301 2.30293,0 3.74226,1.511301 1.51131,1.439334 1.51131,3.742268 0,2.230968 -1.58327,3.742268 -1.58327,1.511301 -3.6703,1.367368 z"
             id="path792" /></g><path
           style="fill:#d45500;stroke-width:1.09301"
           d="m 587.07359,445.00872 c -3.11771,-3.7566 -7.90946,-22.7505 -9.44675,-37.4457 -0.73219,-6.99907 0.9708,-25.39052 2.99549,-32.34984 l 1.1814,-4.06075 5.8956,5.38825 c 6.49873,5.93947 10.95309,7.63654 20.06802,7.6457 3.33641,0.003 6.65642,0.59632 7.37781,1.3177 2.0126,2.0126 1.70047,23.21221 -0.44847,30.46051 -3.52024,11.87359 -8.50284,19.29452 -17.59392,26.20384 -6.09006,4.62851 -8.07789,5.19147 -10.02918,2.84029 z"
           id="path640"
           transform="scale(0.26458333)" /><path
           style="fill:#d45500;stroke-width:1.09301"
           d="m 546.17478,406.32589 c -0.86579,-4.45384 1.18653,-20.53028 3.70046,-28.98694 1.30779,-4.39926 3.57834,-8.97006 5.5993,-11.27181 2.92187,-3.32782 16.1003,-13.57191 17.45949,-13.57191 0.25657,0 -1.11641,3.32001 -3.05107,7.3778 -4.81851,10.10645 -9.25327,27.32576 -9.96245,38.68229 l -0.58976,9.44431 -3.95399,0.65399 c -7.34054,1.21412 -8.57414,0.90207 -9.20198,-2.32773 z"
           id="path642"
           transform="scale(0.26458333)" /><path
           style="fill:#d45500;stroke-width:1.09301"
           d="m 602.79416,368.93464 c -1.20231,-0.50059 -3.57671,-2.38055 -5.27646,-4.17769 -5.57085,-5.89006 -2.04828,-13.74159 4.44499,-9.90752 3.24753,1.91756 10.42117,12.67266 9.47442,14.20455 -0.7175,1.16094 -5.73436,1.09167 -8.64295,-0.11934 z"
           id="path644"
           transform="scale(0.26458333)" /><path
           style="fill:#d45500;stroke-width:1.09301"
           d="m 546.50423,417.11935 c 0,-3.65679 12.46728,-4.92179 13.39883,-1.35952 0.45115,1.72518 -0.25661,2.16501 -4.3971,2.73252 -7.76779,1.0647 -9.00173,0.87649 -9.00173,-1.373 z"
           id="path648"
           transform="scale(0.26458333)" /><path
           style="fill:#d45500;stroke-width:1.09301"
           d="m 550.32976,424.63379 c 4.89166,-1.24472 11.47659,-1.24472 11.47659,0 0,0.63349 -3.10173,1.03864 -7.37781,0.96368 -5.70084,-0.0999 -6.63249,-0.31897 -4.09878,-0.96368 z"
           id="path650"
           transform="scale(0.26458333)" /><path
           style="fill:#d45500;stroke-width:1.09301"
           d="m 164.59918,451.68574 c -2.26445,-3.50574 -6.81352,-20.52771 -8.36747,-31.3099 -1.49512,-10.37395 -0.80353,-23.72024 1.82889,-35.29411 l 1.72777,-7.59645 3.8384,4.4843 c 5.48898,6.41264 11.18512,8.98359 20.99241,9.47494 4.867,0.24383 8.55231,0.96019 9.10858,1.77053 0.51386,0.74855 0.74054,7.50918 0.50375,15.02361 -0.50008,15.86948 -2.61261,22.83719 -9.60666,31.68533 -4.73029,5.98426 -14.53087,14.22102 -16.921,14.22102 -0.8339,0 -2.231,-1.10667 -3.10467,-2.45927 z"
           id="path760"
           transform="scale(0.26458333)" /><path
           style="fill:#d45500;stroke-width:1.09301"
           d="m 176.50261,373.09974 c -3.33503,-2.9282 -3.87068,-4.02891 -3.59031,-7.3778 0.27649,-3.30249 0.77905,-3.9885 3.12181,-4.26139 3.59178,-0.41838 8.1329,3.157 10.90083,8.58259 2.98449,5.85007 2.76718,6.49827 -2.17848,6.49827 -3.30249,0 -5.26694,-0.81913 -8.25385,-3.44167 z"
           id="path762"
           transform="scale(0.26458333)" /></g><g
         id="g1193"
         transform="translate(0.86757525,-35.570594)"><path
           style="fill:#f1f1f1;stroke-width:0.0277436"
           d="m 12.104849,58.696744 c 0.01907,-0.0077 0.05029,-0.0077 0.06936,0 0.01907,0.0077 0.0035,0.01399 -0.03468,0.01399 -0.03815,0 -0.05375,-0.0063 -0.03468,-0.01399 z m 0.804564,0 c 0.01907,-0.0077 0.05028,-0.0077 0.06936,0 0.01907,0.0077 0.0035,0.01399 -0.03468,0.01399 -0.03815,0 -0.05375,-0.0063 -0.03468,-0.01399 z M 6.9756834,56.696772 c -0.034509,-0.044 -0.033528,-0.04498 0.010475,-0.01047 0.046214,0.03624 0.06091,0.05903 0.038076,0.05903 -0.00576,0 -0.027609,-0.02185 -0.048551,-0.04855 z m 11.1009706,0.01033 c 0,-0.0058 0.02185,-0.02761 0.04855,-0.04855 0.044,-0.03451 0.04498,-0.03353 0.01048,0.01047 -0.03624,0.04621 -0.05903,0.06091 -0.05903,0.03808 z m -11.3081444,-0.190666 -0.052851,-0.06242 0.062423,0.05285 c 0.058662,0.04967 0.075053,0.072 0.052851,0.072 -0.00526,0 -0.033355,-0.02809 -0.062423,-0.06242 z m 11.5439654,-0.02081 c 0.02762,-0.03052 0.05646,-0.05549 0.06409,-0.05549 0.0076,0 -0.0087,0.02497 -0.03634,0.05549 -0.02762,0.03052 -0.05646,0.05549 -0.06409,0.05549 -0.0076,0 0.0087,-0.02497 0.03634,-0.05549 z m -11.9323755,-0.339859 -0.052851,-0.06242 0.062423,0.05285 c 0.058662,0.04967 0.075053,0.07199 0.052851,0.07199 -0.00526,0 -0.033355,-0.02809 -0.062423,-0.06242 z m 12.6259645,-0.35373 c 0.02762,-0.03052 0.05646,-0.05549 0.06409,-0.05549 0.0076,0 -0.0087,0.02497 -0.03634,0.05549 -0.02762,0.03052 -0.05646,0.05549 -0.06409,0.05549 -0.0076,0 0.0087,-0.02497 0.03634,-0.05549 z M 6.0487954,55.789216 C 6.0340957,55.768429 5.9267175,55.634362 5.8101767,55.491289 4.9225199,54.401546 4.3155518,53.110788 4.0385164,51.723736 3.9089193,51.074873 3.8856515,50.805271 3.88767,49.97589 3.88924,49.332428 3.899203,49.149939 3.95131,48.81066 4.0674102,48.054713 4.2407245,47.41211 4.5012832,46.771507 4.756997,46.142815 5.3700944,45.041344 5.3700944,45.21063 c 0,0.125392 0.1377372,0.523078 0.2642834,0.763061 0.2601488,0.493347 0.6947872,0.926624 1.1739877,1.170309 0.098709,0.0502 0.117805,0.07218 0.1057921,0.121815 -0.093575,0.3866 -0.1113733,1.335619 -0.034436,1.836152 0.182307,1.186043 0.6668061,2.217023 1.4491091,3.083601 0.1122178,0.124307 0.2040324,0.232042 0.2040324,0.23941 0,0.0074 -0.1092404,0.100935 -0.2427564,0.207925 -0.9333065,0.74788 -1.7358495,1.861528 -2.1278718,2.952739 -0.063354,0.176346 -0.093913,0.231187 -0.1134395,0.203574 z M 19.034039,55.420937 c -0.127554,-0.334088 -0.400357,-0.854673 -0.630151,-1.202504 -0.446506,-0.675864 -0.943447,-1.210317 -1.601554,-1.722452 l -0.09501,-0.07393 0.200464,-0.214656 c 1.122391,-1.201846 1.684053,-2.924021 1.491339,-4.572767 -0.02477,-0.211938 -0.04504,-0.395833 -0.04504,-0.408654 0,-0.01282 0.05306,-0.05029 0.11791,-0.08327 0.322108,-0.163788 0.690641,-0.473956 0.927491,-0.780603 0.152703,-0.197702 0.348122,-0.564641 0.413607,-0.776633 0.0271,-0.08774 0.05854,-0.159525 0.06987,-0.159525 0.03227,0 0.284187,0.45436 0.494441,0.891787 0.386662,0.804436 0.632297,1.637316 0.76887,2.607021 0.06134,0.43555 0.06979,1.705227 0.01402,2.105395 -0.212745,1.526251 -0.659602,2.712247 -1.468672,3.897973 -0.218727,0.320555 -0.522846,0.707461 -0.556083,0.707461 -0.01075,0 -0.05643,-0.09659 -0.101502,-0.214643 z M 5.3167979,44.938118 c 0.00133,-0.03232 0.00791,-0.03889 0.016762,-0.01676 0.00801,0.02003 0.00703,0.04396 -0.00219,0.05318 -0.00922,0.0092 -0.015776,-0.0072 -0.014572,-0.03641 z m 14.6208671,0 c 0.0013,-0.03232 0.0079,-0.03889 0.01676,-0.01676 0.008,0.02003 0.007,0.04396 -0.0022,0.05318 -0.0092,0.0092 -0.01578,-0.0072 -0.01457,-0.03641 z M 5.3167979,44.494221 c 0.00133,-0.03232 0.00791,-0.03889 0.016762,-0.01676 0.00801,0.02003 0.00703,0.04396 -0.00219,0.05318 -0.00922,0.0092 -0.015776,-0.0072 -0.014572,-0.03641 z m 14.6208671,0 c 0.0013,-0.03232 0.0079,-0.03889 0.01676,-0.01676 0.008,0.02003 0.007,0.04396 -0.0022,0.05318 -0.0092,0.0092 -0.01578,-0.0072 -0.01457,-0.03641 z m -9.888854,-1.608964 c -0.2189083,-0.255968 -0.6585467,-0.56166 -0.9925641,-0.690155 -0.097124,-0.03736 -0.156468,-0.06854 -0.1318755,-0.06929 0.024593,-7.46e-4 0.1270254,-0.03868 0.2276277,-0.08429 0.2626599,-0.119096 0.8680549,-0.322771 1.2426989,-0.418086 1.596474,-0.406165 3.352484,-0.345098 4.890125,0.170059 0.313922,0.105174 0.933052,0.359053 0.932886,0.382538 -5.5e-5,0.0098 -0.10782,0.07279 -0.239446,0.140021 -0.270024,0.137918 -0.576531,0.370418 -0.753767,0.571769 -0.117301,0.133261 -0.120753,0.134918 -0.208009,0.09988 -0.900494,-0.361615 -1.386148,-0.470924 -2.198805,-0.494902 -0.877159,-0.02588 -1.591514,0.09981 -2.382839,0.419276 -0.136481,0.0551 -0.255085,0.09977 -0.263564,0.09927 -0.0085,-5.01e-4 -0.06359,-0.05724 -0.122468,-0.126085 z m -3.9573832,-0.08108 c 0.051763,-0.05341 0.1003577,-0.0971 0.1079872,-0.0971 0.00763,0 -0.02848,0.0437 -0.080244,0.0971 -0.051763,0.05341 -0.1003577,0.0971 -0.1079872,0.0971 -0.00763,0 0.02848,-0.0437 0.080244,-0.0971 z m 13.0520492,-0.02081 -0.109669,-0.11791 0.11791,0.109669 c 0.06485,0.06032 0.11791,0.113377 0.11791,0.11791 0,0.02099 -0.02416,-1.4e-5 -0.126151,-0.109669 z M 7.8739528,41.994358 c 0.026703,-0.007 0.070399,-0.007 0.097103,0 0.026703,0.007 0.00486,0.01269 -0.048551,0.01269 -0.053406,0 -0.075255,-0.0057 -0.048551,-0.01269 z m 0.2502202,-1.02e-4 c 0.026994,-0.007 0.064447,-0.0066 0.083231,10e-4 0.018783,0.0076 -0.0033,0.01335 -0.049079,0.01279 -0.045777,-5.66e-4 -0.061145,-0.0068 -0.034152,-0.01382 z m 8.961176,0 c 0.02699,-0.007 0.06445,-0.0066 0.08323,10e-4 0.01878,0.0076 -0.0033,0.01335 -0.04908,0.01279 -0.04578,-5.66e-4 -0.06114,-0.0068 -0.03415,-0.01382 z m 0.221421,1.02e-4 c 0.0267,-0.007 0.0704,-0.007 0.0971,0 0.0267,0.007 0.0049,0.01269 -0.04855,0.01269 -0.05341,0 -0.07525,-0.0057 -0.04855,-0.01269 z"
           id="path1211" /><path
           style="fill:#fada85;stroke-width:0.0277436"
           d="m 12.070169,58.696746 c -0.273182,-0.01648 -0.752745,-0.07131 -0.957153,-0.10943 -0.114442,-0.02134 -0.245531,-0.04476 -0.291308,-0.05204 -0.137328,-0.02185 -0.248077,-0.04767 -0.276181,-0.06439 -0.01457,-0.0087 -0.06336,-0.01979 -0.108429,-0.02473 -0.04507,-0.0049 -0.09672,-0.02123 -0.114782,-0.03623 -0.01806,-0.01499 -0.04023,-0.01987 -0.04925,-0.01085 -0.009,0.009 -0.03285,0.0062 -0.05293,-0.0064 -0.02009,-0.01253 -0.06149,-0.02641 -0.09201,-0.03084 -0.03052,-0.0044 -0.07421,-0.0162 -0.0971,-0.02615 -0.02289,-0.0099 -0.050979,-0.02073 -0.062423,-0.02395 -0.011444,-0.0032 -0.02705,-0.009 -0.034679,-0.0128 -0.00763,-0.0038 -0.026356,-0.01006 -0.041615,-0.01387 -0.015259,-0.0038 -0.033986,-0.01006 -0.041615,-0.01387 -0.00763,-0.0038 -0.026356,-0.01006 -0.041615,-0.01387 -0.015259,-0.0038 -0.030865,-0.0094 -0.034679,-0.01247 -0.00381,-0.003 -0.037168,-0.01109 -0.074118,-0.01789 -0.03695,-0.0068 -0.081794,-0.02449 -0.099655,-0.03931 -0.017861,-0.01482 -0.040688,-0.01874 -0.050729,-0.0087 -0.01004,0.01004 -0.018255,0.0016 -0.018255,-0.01874 0,-0.02034 -0.00821,-0.02878 -0.018255,-0.01874 -0.01004,0.01004 -0.03501,0.0044 -0.055487,-0.01264 -0.020478,-0.01699 -0.037232,-0.02169 -0.037232,-0.01044 0,0.01125 -0.031211,8e-6 -0.069359,-0.02499 -0.038148,-0.02499 -0.069359,-0.03848 -0.069359,-0.02996 0,0.0085 -0.02809,-8.3e-5 -0.062423,-0.01913 -0.034333,-0.01904 -0.071786,-0.03196 -0.083231,-0.02872 -0.011444,0.0032 -0.020808,-0.0073 -0.020808,-0.02349 0,-0.01616 -0.012485,-0.02167 -0.027743,-0.01223 -0.015259,0.0094 -0.027744,0.0039 -0.027744,-0.01224 0,-0.01616 -0.00936,-0.02673 -0.020808,-0.02349 -0.011444,0.0032 -0.047256,-0.0088 -0.079583,-0.02677 -0.032326,-0.01796 -0.066659,-0.02478 -0.076295,-0.01514 -0.00964,0.0096 -0.01752,0.0022 -0.01752,-0.01649 0,-0.0187 -0.012485,-0.02629 -0.027744,-0.01686 -0.015259,0.0094 -0.027743,0.0032 -0.027743,-0.01387 0,-0.01706 -0.012485,-0.0233 -0.027744,-0.01387 -0.015259,0.0094 -0.027744,0.0032 -0.027744,-0.01387 0,-0.01706 -0.012485,-0.0233 -0.027744,-0.01387 -0.015259,0.0094 -0.027744,0.0032 -0.027744,-0.01387 0,-0.01706 -0.012485,-0.0233 -0.027744,-0.01387 -0.015259,0.0094 -0.027744,0.0032 -0.027744,-0.01387 0,-0.01706 -0.012485,-0.0233 -0.027744,-0.01387 -0.015259,0.0094 -0.027744,0.0032 -0.027744,-0.01387 0,-0.01706 -0.012485,-0.0233 -0.027744,-0.01387 -0.015259,0.0094 -0.027743,0.0032 -0.027743,-0.01387 0,-0.01706 -0.012485,-0.0233 -0.027744,-0.01387 -0.015259,0.0094 -0.027744,0.0064 -0.027744,-0.0067 0,-0.01309 -0.043696,-0.03961 -0.097103,-0.05892 -0.053406,-0.01931 -0.097103,-0.04753 -0.097103,-0.0627 0,-0.01517 -0.012485,-0.01987 -0.027743,-0.01044 -0.015259,0.0094 -0.027744,0.0039 -0.027744,-0.01223 0,-0.01616 -0.017835,-0.02938 -0.039634,-0.02938 -0.021799,0 -0.056713,-0.01708 -0.077589,-0.03795 -0.020875,-0.02088 -0.065463,-0.04669 -0.099084,-0.05736 -0.033621,-0.01067 -0.061129,-0.03104 -0.061129,-0.04528 0,-0.01423 -0.019492,-0.02587 -0.043315,-0.02587 -0.055116,0 -0.037541,-0.138404 0.072402,-0.570153 0.3029802,-1.189816 1.0659783,-2.222005 2.134913,-2.888124 0.360201,-0.224464 0.330191,-0.218358 0.604862,-0.123082 1.208861,0.419322 2.509484,0.429826 3.726791,0.0301 l 0.33828,-0.111082 0.189142,0.104134 c 1.115816,0.614322 1.976361,1.723612 2.29759,2.961722 0.133942,0.516249 0.152031,0.448403 -0.173916,0.652295 -1.465036,0.916432 -3.312217,1.388718 -5.026827,1.285256 z m -5.4126337,-2.291281 -0.052851,-0.06242 0.062423,0.05285 c 0.058662,0.04967 0.075053,0.072 0.052851,0.072 -0.00526,0 -0.033355,-0.02809 -0.062423,-0.06242 z m 11.7797857,-0.03468 c 0.03584,-0.03815 0.0714,-0.06936 0.07903,-0.06936 0.0076,0 -0.01545,0.03121 -0.05129,0.06936 -0.03584,0.03815 -0.0714,0.06936 -0.07903,0.06936 -0.0076,0 0.01545,-0.03121 0.05129,-0.06936 z m 0.443897,-0.443897 c 0.03584,-0.03815 0.0714,-0.06936 0.07903,-0.06936 0.0076,0 -0.01545,0.03121 -0.05129,0.06936 -0.03584,0.03815 -0.0714,0.06936 -0.07903,0.06936 -0.0076,0 0.01545,-0.03121 0.05129,-0.06936 z m -12.7508107,-0.04855 -0.052851,-0.06242 0.062423,0.05285 c 0.058662,0.04967 0.075053,0.07199 0.052851,0.07199 -0.00526,0 -0.033355,-0.02809 -0.062423,-0.06242 z M 7.3953761,53.48885 c 0,-0.0058 0.021848,-0.02761 0.048551,-0.04855 0.044003,-0.03451 0.044984,-0.03353 0.010475,0.01047 -0.036243,0.04621 -0.059026,0.06091 -0.059026,0.03808 z m 10.2763609,-0.190666 -0.05285,-0.06242 0.06242,0.05285 c 0.03433,0.02907 0.06242,0.05716 0.06242,0.06242 0,0.0222 -0.02233,0.0058 -0.07199,-0.05285 z M 7.7421708,53.110915 c 0.027618,-0.03052 0.056458,-0.05549 0.064087,-0.05549 0.00763,0 -0.00873,0.02497 -0.036344,0.05549 -0.027618,0.03052 -0.056458,0.05549 -0.064087,0.05549 -0.00763,0 0.00873,-0.02497 0.036344,-0.05549 z m 9.5555632,-0.18727 -0.06726,-0.07629 0.0763,0.06726 c 0.07131,0.06286 0.08902,0.08533 0.06726,0.08533 -0.005,0 -0.0393,-0.03433 -0.0763,-0.0763 z M 8.061222,52.823004 c 0,-0.0058 0.021848,-0.02761 0.048551,-0.04855 0.044003,-0.03451 0.044984,-0.03353 0.010475,0.01047 -0.036243,0.04621 -0.059026,0.06091 -0.059026,0.03808 z m 0.3030795,-0.592948 -0.067259,-0.07629 0.076295,0.06726 c 0.071309,0.06286 0.089018,0.08533 0.067259,0.08533 -0.00497,0 -0.039302,-0.03433 -0.076295,-0.0763 z M 8.1409138,51.980364 c -0.034509,-0.044 -0.033528,-0.04499 0.010475,-0.01047 0.046214,0.03624 0.06091,0.05903 0.038076,0.05903 -0.00576,0 -0.027609,-0.02185 -0.048551,-0.04855 z M 11.584657,51.29993 c -0.252459,-0.08639 -0.424486,-0.194213 -0.609275,-0.381894 -0.177077,-0.179847 -0.338088,-0.477191 -0.38697,-0.714627 -0.152138,-0.738981 0.259987,-1.470509 0.96567,-1.714076 0.173969,-0.06005 0.585446,-0.12033 0.585446,-0.08577 0,0.0089 -0.03103,0.06195 -0.06896,0.117847 -0.124895,0.184042 -0.151567,0.359425 -0.08719,0.573328 0.08582,0.285153 0.343798,0.476097 0.641107,0.474516 0.283428,-0.0015 0.499768,-0.136293 0.614612,-0.38292 0.110726,-0.237782 0.0694,-0.561272 -0.09539,-0.74662 -0.04593,-0.05167 -0.04227,-0.05244 0.157811,-0.03314 0.645195,0.06224 1.152995,0.45756 1.338726,1.042185 0.07902,0.248733 0.07887,0.639955 -3.49e-4,0.887795 -0.114535,0.358342 -0.403068,0.697415 -0.737544,0.866732 -0.296755,0.150222 -0.369424,0.159156 -1.291183,0.158734 -0.801508,-3.66e-4 -0.855699,-0.0036 -1.026512,-0.06209 z m 1.442666,-0.508675 c 0.294061,-0.133041 0.522019,-0.439872 0.569697,-0.766814 l 0.01922,-0.131782 h -0.978057 -0.978057 l 0.01536,0.14878 c 0.02734,0.264881 0.218947,0.563357 0.447718,0.697426 0.279249,0.163651 0.615179,0.183116 0.904125,0.05239 z m 5.356701,-1.830318 c 0.0013,-0.03232 0.0079,-0.03889 0.01676,-0.01676 0.008,0.02003 0.007,0.04396 -0.0022,0.05318 -0.0092,0.0092 -0.01578,-0.0072 -0.01457,-0.03641 z M 6.8426948,48.849963 c 0.00133,-0.03232 0.00791,-0.03889 0.016762,-0.01676 0.00801,0.02003 0.00703,0.04396 -0.00219,0.05318 -0.00922,0.0092 -0.015776,-0.0072 -0.014571,-0.03641 z M 18.413958,48.644198 c 0,-0.03815 0.0063,-0.05375 0.01399,-0.03468 0.0077,0.01907 0.0077,0.05029 0,0.06936 -0.0077,0.01907 -0.01399,0.0035 -0.01399,-0.03468 z M 6.8227625,48.283532 c 0,-0.144961 0.00468,-0.204262 0.010391,-0.131782 0.00572,0.07248 0.00572,0.191084 0,0.263564 -0.00572,0.07248 -0.010391,0.01318 -0.010391,-0.131782 z M 18.413958,47.922865 c 0,-0.03815 0.0063,-0.05375 0.01399,-0.03468 0.0077,0.01907 0.0077,0.05029 0,0.06936 -0.0077,0.01907 -0.01399,0.0035 -0.01399,-0.03468 z M 6.8426948,47.712476 c 0.00133,-0.03232 0.00791,-0.03889 0.016762,-0.01676 0.00801,0.02003 0.00703,0.04396 -0.00219,0.05318 -0.00922,0.0092 -0.015776,-0.0072 -0.014571,-0.03641 z M 18.326347,47.230913 c 0,-0.01436 0.01234,-0.03373 0.02743,-0.04306 0.01573,-0.0097 0.02038,0.0014 0.0109,0.02611 -0.01844,0.04806 -0.03833,0.05686 -0.03833,0.01695 z M 5.3237113,44.718482 c 1.11e-4,-0.106813 0.00514,-0.14711 0.011143,-0.08955 0.00601,0.05756 0.00591,0.144953 -2.219e-4,0.194205 -0.00613,0.04925 -0.011043,0.0022 -0.01092,-0.104657 z m 14.6208667,0 c 1.11e-4,-0.106813 0.0051,-0.14711 0.01114,-0.08955 0.006,0.05756 0.0059,0.144953 -2.22e-4,0.194205 -0.0061,0.04925 -0.01104,0.0022 -0.01092,-0.104657 z m -9.889357,-1.810269 c -0.03451,-0.044 -0.03353,-0.04498 0.01048,-0.01048 0.0267,0.02094 0.04855,0.04279 0.04855,0.04855 0,0.02283 -0.02278,0.0081 -0.05903,-0.03808 z m 5.149973,-0.0069 c 0.02762,-0.03052 0.05646,-0.05549 0.06409,-0.05549 0.0076,0 -0.0087,0.02497 -0.03634,0.05549 -0.02762,0.03052 -0.05646,0.05549 -0.06409,0.05549 -0.0076,0 0.0087,-0.02497 0.03634,-0.05549 z M 9.8332722,42.686264 c -0.03451,-0.044 -0.033528,-0.04498 0.010475,-0.01047 0.046214,0.03624 0.060911,0.05903 0.038076,0.05903 -0.00576,0 -0.027609,-0.02185 -0.048551,-0.04855 z m 5.5522548,0.03808 c 0,-0.0058 0.02185,-0.02761 0.04855,-0.04855 0.044,-0.03451 0.04499,-0.03353 0.01048,0.01047 -0.03624,0.04621 -0.05903,0.06091 -0.05903,0.03808 z m -3.473149,-0.202682 c 0.02003,-0.008 0.04396,-0.007 0.05317,0.0022 0.0092,0.0092 -0.0072,0.01578 -0.03641,0.01457 -0.03232,-0.0013 -0.03889,-0.0079 -0.01676,-0.01676 z m 1.414922,0 c 0.02003,-0.008 0.04396,-0.007 0.05318,0.0022 0.0092,0.0092 -0.0072,0.01578 -0.03641,0.01457 -0.03232,-0.0013 -0.03889,-0.0079 -0.01676,-0.01676 z m -1.166964,-0.02717 c 0.01907,-0.0077 0.05029,-0.0077 0.06936,0 0.01907,0.0077 0.0035,0.01399 -0.03468,0.01399 -0.03815,0 -0.05375,-0.0063 -0.03468,-0.01399 z m 0.874451,-8.52e-4 c 0.02699,-0.007 0.06445,-0.0066 0.08323,10e-4 0.01878,0.0076 -0.0033,0.01335 -0.04908,0.01279 -0.04578,-5.65e-4 -0.06114,-0.0068 -0.03415,-0.01382 z M 7.66761,42.022274 c 0.020027,-0.008 0.043956,-0.007 0.053175,0.0022 0.00922,0.0092 -0.00717,0.01578 -0.036413,0.01457 -0.03232,-0.0013 -0.038894,-0.0079 -0.016762,-0.01676 z m 9.904458,0 c 0.02003,-0.008 0.04396,-0.007 0.05317,0.0022 0.0092,0.0092 -0.0072,0.01578 -0.03641,0.01457 -0.03232,-0.0013 -0.03889,-0.0079 -0.01676,-0.01676 z m -9.5437915,-0.02774 c 0.020027,-0.008 0.043956,-0.007 0.053175,0.0022 0.00922,0.0092 -0.00717,0.01578 -0.036414,0.01457 -0.03232,-0.0013 -0.038894,-0.0079 -0.016762,-0.01676 z m 9.1831255,0 c 0.02003,-0.008 0.04396,-0.007 0.05317,0.0022 0.0092,0.0092 -0.0072,0.01578 -0.03641,0.01457 -0.03232,-0.0013 -0.03889,-0.0079 -0.01676,-0.01676 z"
           id="path1209" /><path
           style="fill:#fad072;stroke-width:0.0277436"
           d="m 18.65927,56.148837 c 0.08288,-0.08393 0.156936,-0.15259 0.164566,-0.15259 0.0076,0 -0.05394,0.06867 -0.136823,0.15259 -0.08288,0.08392 -0.156936,0.152589 -0.164566,0.152589 -0.0076,0 0.05394,-0.06866 0.136823,-0.152589 z m -12.4178884,-0.159526 -0.052851,-0.06242 0.062423,0.05285 c 0.058662,0.04967 0.075053,0.072 0.052851,0.072 -0.00526,0 -0.033355,-0.02809 -0.062423,-0.06242 z M 16.297526,54.89344 c -0.03451,-0.044 -0.03353,-0.04498 0.01047,-0.01047 0.04621,0.03624 0.06091,0.05903 0.03808,0.05903 -0.0058,0 -0.02761,-0.02185 -0.04855,-0.04855 z M 8.9490166,54.87603 c 0,-0.0058 0.021848,-0.02761 0.048551,-0.04855 0.044003,-0.03451 0.044984,-0.03353 0.010475,0.01047 -0.036243,0.04621 -0.059026,0.06091 -0.059026,0.03808 z m 7.0746124,-0.280833 c -0.06739,-0.06867 -0.116285,-0.124846 -0.108655,-0.124846 0.0076,0 0.06901,0.05618 0.136399,0.124846 0.06739,0.06866 0.116285,0.124846 0.108656,0.124846 -0.0076,0 -0.06901,-0.05618 -0.1364,-0.124846 z M 9.4206574,54.404388 c 0,-0.0058 0.021848,-0.02761 0.048551,-0.04855 0.044003,-0.03451 0.044984,-0.03353 0.010475,0.01047 -0.036243,0.04621 -0.059026,0.06091 -0.059026,0.03808 z m 3.0873106,-0.315131 c 0.07294,-0.0057 0.185302,-0.0057 0.249692,1.66e-4 0.06439,0.0058 0.0047,0.01051 -0.132619,0.01043 -0.137331,-8.3e-5 -0.190014,-0.0048 -0.117073,-0.01058 z m -0.456872,-0.02627 c 0.02003,-0.008 0.04396,-0.007 0.05318,0.0022 0.0092,0.0092 -0.0072,0.01578 -0.03641,0.01457 -0.03232,-0.0013 -0.03889,-0.0079 -0.01676,-0.01676 z m 1.108009,5.77e-4 c 0.01907,-0.0077 0.05029,-0.0077 0.06936,0 0.01907,0.0077 0.0035,0.01399 -0.03468,0.01399 -0.03815,0 -0.05375,-0.0063 -0.03468,-0.01399 z m 4.334934,-0.938779 c -0.06739,-0.06867 -0.116285,-0.124846 -0.108655,-0.124846 0.0076,0 0.06901,0.05618 0.136399,0.124846 0.06739,0.06867 0.116285,0.124846 0.108655,0.124846 -0.0076,0 -0.06901,-0.05618 -0.136399,-0.124846 z m -9.0054274,-0.769884 -0.052851,-0.06242 0.062423,0.05285 c 0.058662,0.04967 0.075053,0.072 0.052851,0.072 -0.00526,0 -0.033355,-0.02809 -0.062423,-0.06242 z m 3.7704854,-0.98484 c 0.210723,-0.0047 0.547808,-0.0047 0.749077,2.7e-5 0.201269,0.0047 0.02886,0.0086 -0.383133,0.0086 -0.411992,-1.5e-5 -0.576667,-0.0039 -0.365944,-0.0086 z m 0.291383,-0.497586 c 0.02003,-0.008 0.04396,-0.007 0.05317,0.0022 0.0092,0.0092 -0.0072,0.01578 -0.03641,0.01457 -0.03232,-0.0013 -0.03889,-0.0079 -0.01676,-0.01676 z m 0.110974,0 c 0.02003,-0.008 0.04396,-0.007 0.05318,0.0022 0.0092,0.0092 -0.0072,0.01578 -0.03641,0.01457 -0.03232,-0.0013 -0.03889,-0.0079 -0.01676,-0.01676 z m 2.034864,-0.841099 c 0,-0.03815 0.0063,-0.05375 0.01399,-0.03468 0.0077,0.01907 0.0077,0.05028 0,0.06936 -0.0077,0.01907 -0.01399,0.0035 -0.01399,-0.03468 z m -1.108715,-0.06936 c 5.66e-4,-0.04578 0.0068,-0.06115 0.01382,-0.03415 0.007,0.02699 0.0066,0.06445 -0.001,0.08323 -0.0076,0.01878 -0.01336,-0.0033 -0.01279,-0.04908 z m 1.108715,-0.208077 c 0,-0.03815 0.0063,-0.05375 0.01399,-0.03468 0.0077,0.01907 0.0077,0.05029 0,0.06936 -0.0077,0.01907 -0.01399,0.0035 -0.01399,-0.03468 z m -2.105429,-0.185687 c 0.02699,-0.007 0.06445,-0.0066 0.08323,10e-4 0.01878,0.0076 -0.0033,0.01336 -0.04908,0.01279 -0.04578,-5.66e-4 -0.06114,-0.0068 -0.03415,-0.01382 z m -0.4549,-0.195787 c -0.03451,-0.044 -0.03353,-0.04498 0.01047,-0.01047 0.04621,0.03624 0.06091,0.05903 0.03808,0.05903 -0.0058,0 -0.02761,-0.02185 -0.04855,-0.04855 z m 2.124618,-0.541 -0.109669,-0.11791 0.11791,0.109669 c 0.109655,0.101991 0.130659,0.126152 0.109669,0.126152 -0.0045,0 -0.05759,-0.05306 -0.11791,-0.117911 z m 4.154379,-0.312115 c 5.66e-4,-0.04578 0.0068,-0.06114 0.01382,-0.03415 0.007,0.02699 0.0066,0.06445 -0.001,0.08323 -0.0076,0.01878 -0.01336,-0.0033 -0.01279,-0.04908 z m -6.558095,-0.116054 c 0.02003,-0.008 0.04396,-0.007 0.05318,0.0022 0.0092,0.0092 -0.0072,0.01578 -0.03641,0.01457 -0.03232,-0.0013 -0.03889,-0.0079 -0.01676,-0.01676 z m 1.498153,0 c 0.02003,-0.008 0.04396,-0.007 0.05318,0.0022 0.0092,0.0092 -0.0072,0.01578 -0.03641,0.01457 -0.03232,-0.0013 -0.03889,-0.0079 -0.01676,-0.01676 z m 5.059942,-0.355587 c 5.66e-4,-0.04578 0.0068,-0.06114 0.01382,-0.03415 0.007,0.02699 0.0066,0.06445 -0.001,0.08323 -0.0076,0.01878 -0.01336,-0.0033 -0.01279,-0.04908 z m -8.4693005,-5.250472 -0.067259,-0.07629 0.076295,0.06726 c 0.071309,0.06286 0.089018,0.08533 0.06726,0.08533 -0.005,0 -0.039302,-0.03433 -0.076296,-0.0763 z m 5.3704825,-0.0069 c 0.02762,-0.03052 0.05646,-0.05549 0.06409,-0.05549 0.0076,0 -0.0087,0.02497 -0.03634,0.05549 -0.02762,0.03052 -0.05646,0.05549 -0.06409,0.05549 -0.0076,0 0.0087,-0.02497 0.03634,-0.05549 z"
           id="path1207" /><path
           style="fill:#fcc453;stroke-width:0.0277436"
           d="m 7.8692073,57.145294 c 0.00133,-0.03232 0.00791,-0.03889 0.016762,-0.01676 0.00801,0.02003 0.00703,0.04396 -0.00219,0.05318 -0.00922,0.0092 -0.015776,-0.0072 -0.014572,-0.03641 z M 6.8092219,56.530311 c -0.034509,-0.044 -0.033528,-0.04498 0.010475,-0.01047 0.026703,0.02094 0.048551,0.04279 0.048551,0.04855 0,0.02283 -0.022783,0.0081 -0.059026,-0.03808 z m 11.4338941,0.01033 c 0,-0.0058 0.02185,-0.02761 0.04855,-0.04855 0.044,-0.03451 0.04498,-0.03353 0.01047,0.01047 -0.03624,0.04621 -0.05903,0.06091 -0.05903,0.03808 z M 6.4243508,56.17658 c -0.06739,-0.06867 -0.116285,-0.124846 -0.1086555,-0.124846 0.00763,0 0.069009,0.05618 0.1363991,0.124846 0.06739,0.06866 0.1162849,0.124846 0.1086555,0.124846 -0.00763,0 -0.069009,-0.05618 -0.1363991,-0.124846 z m 9.7769762,-1.407987 -0.05285,-0.06242 0.06242,0.05285 c 0.05866,0.04967 0.07505,0.07199 0.05285,0.07199 -0.0053,0 -0.03336,-0.02809 -0.06242,-0.06242 z M 9.1987088,54.595196 c 0.082882,-0.08392 0.1569365,-0.15259 0.164566,-0.15259 0.00763,0 -0.053941,0.06867 -0.1368224,0.15259 -0.082882,0.08392 -0.1569366,0.15259 -0.1645661,0.15259 -0.00763,0 0.053941,-0.06867 0.1368225,-0.15259 z m 6.6419512,-0.187269 -0.05285,-0.06242 0.06242,0.05285 c 0.03433,0.02907 0.06242,0.05716 0.06242,0.06242 0,0.0222 -0.02233,0.0058 -0.072,-0.05285 z m -6.3367718,-0.08677 c 0,-0.0058 0.021848,-0.02761 0.048551,-0.04855 0.044003,-0.03451 0.044984,-0.03353 0.010475,0.01047 -0.036243,0.04621 -0.059026,0.06091 -0.059026,0.03808 z m 2.6431038,-0.258443 c 0.02699,-0.007 0.06445,-0.0066 0.08323,10e-4 0.01878,0.0076 -0.0033,0.01335 -0.04908,0.01279 -0.04578,-5.66e-4 -0.06115,-0.0068 -0.03415,-0.01382 z m 0.887795,0 c 0.02699,-0.007 0.06445,-0.0066 0.08323,10e-4 0.01878,0.0076 -0.0033,0.01335 -0.04908,0.01279 -0.04578,-5.66e-4 -0.06114,-0.0068 -0.03415,-0.01382 z M 11.8829,54.035822 c 0.01907,-0.0077 0.05029,-0.0077 0.06936,0 0.01907,0.0077 0.0035,0.01399 -0.03468,0.01399 -0.03815,0 -0.05375,-0.0063 -0.03468,-0.01399 z m 1.442666,0 c 0.01907,-0.0077 0.05029,-0.0077 0.06936,0 0.01907,0.0077 0.0035,0.01399 -0.03468,0.01399 -0.03815,0 -0.05375,-0.0063 -0.03468,-0.01399 z m 0.362401,-0.05607 c 0.02003,-0.008 0.04396,-0.007 0.05317,0.0022 0.0092,0.0092 -0.0072,0.01578 -0.03641,0.01457 -0.03232,-0.0013 -0.03889,-0.0079 -0.01676,-0.01676 z m 4.107713,-0.528984 c -0.03451,-0.044 -0.03353,-0.04498 0.01047,-0.01047 0.0267,0.02094 0.04855,0.04279 0.04855,0.04855 0,0.02283 -0.02278,0.0081 -0.05903,-0.03808 z m -10.2893296,-0.0729 c 0,-0.0058 0.021848,-0.02761 0.048551,-0.04855 0.044003,-0.03451 0.044984,-0.03353 0.010475,0.01047 -0.036243,0.04621 -0.059026,0.06091 -0.059026,0.03808 z m 0.4438973,-0.443897 c 0,-0.0058 0.021848,-0.02761 0.048551,-0.04855 0.044003,-0.03451 0.044984,-0.03353 0.010475,0.01047 -0.036243,0.04621 -0.059026,0.06091 -0.059026,0.03808 z m 8.8224583,-0.608565 c 0,-0.0048 0.04058,-0.04535 0.09017,-0.09017 l 0.09017,-0.08148 -0.08149,0.09017 c -0.07596,0.08405 -0.09885,0.102919 -0.09885,0.08149 z m -4.943559,-0.953552 c 0.02003,-0.008 0.04396,-0.007 0.05317,0.0022 0.0092,0.0092 -0.0072,0.01578 -0.03641,0.01457 -0.03232,-0.0013 -0.03889,-0.0079 -0.01676,-0.01676 z m 1.55364,0 c 0.02003,-0.008 0.04396,-0.007 0.05318,0.0022 0.0092,0.0092 -0.0072,0.01578 -0.03641,0.01457 -0.03232,-0.0013 -0.03889,-0.0079 -0.01676,-0.01676 z m 0.782023,-0.324446 c 0,-0.0058 0.02185,-0.02761 0.04855,-0.04855 0.044,-0.03451 0.04498,-0.03353 0.01047,0.01047 -0.03624,0.04621 -0.05903,0.06091 -0.05903,0.03808 z m 0.180333,-0.18373 c 0.02762,-0.03052 0.05646,-0.05549 0.06409,-0.05549 0.0076,0 -0.0087,0.02497 -0.03634,0.05549 -0.02762,0.03052 -0.05646,0.05549 -0.06409,0.05549 -0.0076,0 0.0087,-0.02497 0.03634,-0.05549 z m -3.809334,-0.873923 c 5.66e-4,-0.04578 0.0068,-0.06114 0.01382,-0.03415 0.007,0.02699 0.0066,0.06445 -10e-4,0.08323 -0.0076,0.01878 -0.01335,-0.0033 -0.01279,-0.04908 z m 10e-4,-0.208077 c 0,-0.05341 0.0057,-0.07526 0.01269,-0.04855 0.007,0.0267 0.007,0.0704 0,0.0971 -0.007,0.0267 -0.01269,0.0049 -0.01269,-0.04855 z m 0.423587,-0.943282 c 0.0596,-0.06104 0.114606,-0.110974 0.122236,-0.110974 0.0076,0 -0.03489,0.04994 -0.09449,0.110974 -0.0596,0.06104 -0.114606,0.110975 -0.122236,0.110975 -0.0076,0 0.03489,-0.04994 0.09449,-0.110975 z m 7.458031,-0.554871 c 0,-0.09918 0.005,-0.139759 0.01119,-0.09017 0.0062,0.04959 0.0062,0.130742 0,0.180333 -0.0062,0.04959 -0.01119,0.009 -0.01119,-0.09017 z m -4.980182,0.119766 c 0.02003,-0.008 0.04396,-0.007 0.05317,0.0022 0.0092,0.0092 -0.0072,0.01578 -0.03641,0.01457 -0.03232,-0.0013 -0.03889,-0.0079 -0.01676,-0.01676 z m -7.2523806,-1.708086 -0.052851,-0.06242 0.062423,0.05285 c 0.058662,0.04967 0.075053,0.072 0.052851,0.072 -0.00526,0 -0.033355,-0.02809 -0.062423,-0.06242 z m 12.8340416,0.05195 c 0,-0.0058 0.02185,-0.02761 0.04855,-0.04855 0.044,-0.03451 0.04499,-0.03353 0.01047,0.01047 -0.03624,0.04621 -0.05903,0.06091 -0.05903,0.03808 z m -12.9727595,-0.190666 -0.052851,-0.06242 0.062423,0.05285 c 0.058662,0.04967 0.075053,0.072 0.052851,0.072 -0.00526,0 -0.033355,-0.02809 -0.062423,-0.06242 z m 13.1392215,0.0242 c 0,-0.0058 0.02185,-0.02761 0.04855,-0.04855 0.044,-0.03451 0.04498,-0.03353 0.01047,0.01047 -0.03624,0.04621 -0.05903,0.06091 -0.05903,0.03808 z M 6.1052996,42.818046 c 0.0596,-0.06104 0.114606,-0.110974 0.1222354,-0.110974 0.00763,0 -0.034892,0.04994 -0.094492,0.110974 -0.0596,0.06104 -0.114606,0.110975 -0.1222355,0.110975 -0.00763,0 0.034892,-0.04994 0.094492,-0.110975 z m 13.0381774,-0.0069 -0.109669,-0.11791 0.11791,0.109669 c 0.109656,0.101991 0.130659,0.126152 0.109669,0.126152 -0.0045,0 -0.05759,-0.05306 -0.11791,-0.117911 z m -6.81668,-0.316617 c 0.01907,-0.0077 0.05029,-0.0077 0.06936,0 0.01907,0.0077 0.0035,0.01399 -0.03468,0.01399 -0.03815,0 -0.05375,-0.0063 -0.03468,-0.01399 z m 0.556606,-5.78e-4 c 0.02003,-0.008 0.04396,-0.007 0.05318,0.0022 0.0092,0.0092 -0.0072,0.01578 -0.03641,0.01457 -0.03232,-0.0013 -0.03889,-0.0079 -0.01676,-0.01676 z"
           id="path1205" /><path
           style="fill:#f5b550;stroke-width:0.0277436"
           d="m 13.193784,50.686748 c 0,-0.0058 0.02185,-0.02761 0.04855,-0.04855 0.044,-0.03451 0.04498,-0.03353 0.01047,0.01047 -0.03624,0.04621 -0.05903,0.06091 -0.05903,0.03808 z m -1.252,-0.09356 c -0.03451,-0.044 -0.03353,-0.04498 0.01047,-0.01047 0.04621,0.03624 0.06091,0.05903 0.03808,0.05903 -0.0058,0 -0.02761,-0.02185 -0.04855,-0.04855 z m 1.390718,-0.04516 c 0,-0.0058 0.02185,-0.02761 0.04855,-0.04855 0.044,-0.03451 0.04499,-0.03353 0.01047,0.01047 -0.03624,0.04621 -0.05903,0.06091 -0.05903,0.03808 z m -1.662424,-0.505093 c 0.0013,-0.03232 0.0079,-0.03889 0.01676,-0.01676 0.008,0.02003 0.007,0.04396 -0.0022,0.05318 -0.0092,0.0092 -0.01578,-0.0072 -0.01457,-0.03641 z m 0.460725,-0.14329 c 0.262233,-0.0046 0.699194,-0.0046 0.971025,-1.7e-5 0.271831,0.0045 0.05728,0.0083 -0.476787,0.0083 -0.534064,1e-5 -0.756471,-0.0037 -0.494238,-0.0083 z m 0.965879,-0.534116 c 0.02762,-0.03052 0.05646,-0.05549 0.06409,-0.05549 0.0076,0 -0.0087,0.02497 -0.03634,0.05549 -0.02762,0.03052 -0.05646,0.05549 -0.06409,0.05549 -0.0076,0 0.0087,-0.02497 0.03634,-0.05549 z M 11.95176,48.89389 c 0,-0.05341 0.0057,-0.07525 0.01269,-0.04855 0.007,0.0267 0.007,0.0704 0,0.0971 -0.007,0.0267 -0.01269,0.0049 -0.01269,-0.04855 z"
           id="path1203" /><path
           style="fill:#fdb834;stroke-width:0.0277436"
           d="M 7.5479658,57.101973 C 7.1731228,56.836028 6.719341,56.448584 6.3771442,56.102311 L 6.0941173,55.815914 6.199827,55.538478 c 0.4457425,-1.169857 1.2475258,-2.247355 2.2289974,-2.995498 0.07248,-0.05525 0.131782,-0.107386 0.131782,-0.11586 0,-0.0085 -0.082564,-0.104584 -0.183476,-0.213578 -1.0347887,-1.117667 -1.59104,-2.630928 -1.526196,-4.151959 0.010083,-0.236514 0.034644,-0.526929 0.054581,-0.645367 l 0.036248,-0.215341 -0.1685397,-0.09475 C 6.3652195,46.876761 6.0353999,46.57184 5.7838661,46.191458 5.2906593,45.445607 5.2066124,44.486481 5.5614011,43.65274 c 0.176594,-0.41499 0.537257,-0.863278 0.9086844,-1.129455 1.0825096,-0.775759 2.6131287,-0.634018 3.5186076,0.325837 l 0.1801529,0.190972 0.240036,-0.09936 c 1.418285,-0.587101 3.005844,-0.590328 4.424856,-0.009 l 0.266648,0.109238 0.218865,-0.217611 c 0.449414,-0.446838 0.963622,-0.701758 1.58206,-0.784311 0.63831,-0.08521 1.36928,0.100284 1.906429,0.483772 0.404965,0.289117 0.794036,0.798896 0.960191,1.258088 0.454097,1.254957 -0.03545,2.596765 -1.198828,3.285903 -0.133516,0.07909 -0.24236,0.151118 -0.241877,0.160065 4.83e-4,0.0089 0.01897,0.141112 0.04108,0.293702 0.04725,0.326148 0.05386,1.120773 0.01211,1.457266 -0.149341,1.203684 -0.657475,2.306315 -1.484375,3.221031 l -0.209013,0.231211 0.07746,0.05604 c 0.59611,0.431252 1.342744,1.255547 1.747015,1.928732 0.225043,0.374737 0.591667,1.145679 0.591667,1.244166 0,0.04133 -0.511787,0.57023 -0.802937,0.829787 -0.26033,0.23208 -0.885405,0.716171 -0.899618,0.696712 -0.0041,-0.0056 -0.04207,-0.153752 -0.0844,-0.32923 -0.31452,-1.303789 -1.2185,-2.481165 -2.380881,-3.100945 l -0.158889,-0.08472 -0.141955,0.05394 c -1.193549,0.453513 -2.609197,0.467484 -3.885977,0.03835 l -0.268885,-0.09037 -0.202566,0.109915 c -0.9483037,0.514561 -1.7586271,1.451599 -2.1598361,2.497581 -0.099095,0.258348 -0.2500166,0.827844 -0.2501303,0.943856 -2.78e-5,0.04196 -0.00944,0.07598 -0.020882,0.0756 -0.011444,-3.8e-4 -0.1456538,-0.08927 -0.2982435,-0.197529 z m 5.9843122,-5.741594 c 0.531505,-0.110026 1.006895,-0.56441 1.144923,-1.094334 0.05393,-0.207047 0.05445,-0.537727 0.0012,-0.742287 -0.167871,-0.644499 -0.77363,-1.129252 -1.411141,-1.129252 -0.138578,0 -0.207876,-0.01263 -0.24282,-0.04425 -0.07552,-0.06835 -0.246139,-0.119648 -0.402393,-0.120991 -0.104101,-8.93e-4 -0.185148,0.02079 -0.30518,0.08166 -0.127377,0.06459 -0.200405,0.08296 -0.331003,0.08323 -0.653497,0.0014 -1.254805,0.498207 -1.412452,1.16705 -0.18356,0.77878 0.307344,1.572526 1.105707,1.787827 0.179374,0.04837 1.631379,0.05726 1.853191,0.01135 z m -3.458589,-2.254683 c 0.267006,-0.124334 0.456712,-0.421364 0.456712,-0.715092 0,-0.54961 -0.5972151,-0.942491 -1.0958718,-0.720925 -0.5014247,0.222795 -0.641062,0.834157 -0.2833452,1.240544 0.1583842,0.179934 0.340495,0.260561 0.5885246,0.260561 0.1455389,0 0.2292316,-0.01631 0.3339804,-0.06509 z m 5.65969,0 c 0.269164,-0.125339 0.456712,-0.424725 0.456712,-0.729057 0,-0.535822 -0.604037,-0.925494 -1.095871,-0.70696 -0.501425,0.222795 -0.641062,0.834157 -0.283346,1.240544 0.158385,0.179934 0.340495,0.260561 0.588525,0.260561 0.145539,0 0.229232,-0.01631 0.33398,-0.06509 z m -8.3435747,-3.30078 c 0.1252637,-0.27861 0.3637841,-0.673641 0.5973601,-0.989332 0.2211951,-0.298957 0.6953817,-0.797193 0.9576989,-1.00627 L 9.1210437,43.668891 9.0142223,43.577698 C 8.7473535,43.349873 8.4217581,43.2342 8.0473502,43.2342 c -0.6631725,0 -1.2012587,0.381637 -1.4237744,1.00981 -0.05693,0.160716 -0.06973,0.248176 -0.069441,0.474472 4.966e-4,0.388712 0.091582,0.646631 0.3364023,0.952554 0.090666,0.113293 0.3494365,0.337558 0.3894205,0.337492 0.010074,-1.7e-5 0.059505,-0.09164 0.1098467,-0.203612 z m 10.7638177,0.095 c 0.143767,-0.113641 0.289797,-0.281732 0.387668,-0.446234 0.196475,-0.330234 0.244042,-0.839624 0.11296,-1.209676 -0.170119,-0.480254 -0.528213,-0.8192 -1.019592,-0.965075 -0.196641,-0.05838 -0.609686,-0.05875 -0.808365,-7.3e-4 -0.172136,0.05027 -0.438325,0.194222 -0.580389,0.313872 l -0.09678,0.08151 0.08291,0.06464 c 0.656916,0.512188 1.274468,1.286142 1.628908,2.041449 0.05907,0.125886 0.118171,0.228884 0.131326,0.228884 0.01316,0 0.08576,-0.04889 0.161355,-0.108638 z"
           id="path1201" /><path
           style="fill:#e75322;stroke-width:0.0277436"
           d="M 12.335928,50.819762 C 11.986203,50.692596 11.73632,50.392849 11.684474,50.038313 l -0.01724,-0.11791 h 0.961252 0.961253 l -0.01775,0.129532 c -0.04161,0.303546 -0.260236,0.595231 -0.54411,0.725924 -0.194526,0.08956 -0.51114,0.109646 -0.691944,0.0439 z"
           id="path1199" /><path
           style="fill:#926c18;stroke-width:0.0277436"
           d="m 12.151655,49.358595 -0.08149,-0.09017 0.09017,0.08149 c 0.08405,0.07596 0.102919,0.09885 0.08149,0.09885 -0.0048,0 -0.04535,-0.04058 -0.09017,-0.09017 z M 9.250657,49.011801 c -0.034509,-0.044 -0.033528,-0.04498 0.010475,-0.01047 0.026703,0.02094 0.048551,0.04279 0.048551,0.04855 0,0.02283 -0.022783,0.0081 -0.059026,-0.03808 z m 0.919077,0.03808 c 0,-0.0058 0.02185,-0.02761 0.04855,-0.04855 0.044,-0.03451 0.04499,-0.03353 0.01047,0.01047 -0.03624,0.04621 -0.05903,0.06091 -0.05903,0.03808 z m 4.740613,-0.03808 c -0.03451,-0.044 -0.03353,-0.04498 0.01047,-0.01047 0.04621,0.03624 0.06091,0.05903 0.03808,0.05903 -0.0058,0 -0.02761,-0.02185 -0.04855,-0.04855 z m 0.919077,0.03808 c 0,-0.0058 0.02185,-0.02761 0.04855,-0.04855 0.044,-0.03451 0.04498,-0.03353 0.01047,0.01047 -0.03624,0.04621 -0.05903,0.06091 -0.05903,0.03808 z M 13.284571,48.89389 c 0,-0.06866 0.0054,-0.09676 0.01202,-0.06242 0.0066,0.03433 0.0066,0.09051 0,0.124846 -0.0066,0.03433 -0.01202,0.0062 -0.01202,-0.06242 z M 9.1119391,48.87308 c -0.034509,-0.044 -0.033528,-0.04499 0.010475,-0.01047 0.026703,0.02094 0.048551,0.04279 0.048551,0.04855 0,0.02283 -0.022783,0.0081 -0.059026,-0.03808 z m 5.6596899,0 c -0.03451,-0.044 -0.03353,-0.04499 0.01047,-0.01047 0.04621,0.03624 0.06091,0.05903 0.03808,0.05903 -0.0058,0 -0.02761,-0.02185 -0.04855,-0.04855 z M 8.9544252,48.491608 c 5.659e-4,-0.04578 0.00678,-0.06114 0.013817,-0.03415 0.00703,0.02699 0.00657,0.06445 -0.00103,0.08323 -0.0076,0.01878 -0.013355,-0.0033 -0.012789,-0.04908 z m 1.5536408,0 c 5.66e-4,-0.04578 0.0068,-0.06114 0.01382,-0.03415 0.007,0.02699 0.0066,0.06445 -10e-4,0.08323 -0.0076,0.01878 -0.01336,-0.0033 -0.01279,-0.04908 z m 4.10605,0 c 5.65e-4,-0.04578 0.0068,-0.06114 0.01382,-0.03415 0.007,0.02699 0.0066,0.06445 -10e-4,0.08323 -0.0076,0.01878 -0.01335,-0.0033 -0.01279,-0.04908 z m 1.552612,-0.01387 c 0,-0.03815 0.0063,-0.05375 0.01399,-0.03468 0.0077,0.01907 0.0077,0.05028 0,0.06936 -0.0077,0.01907 -0.01399,0.0035 -0.01399,-0.03468 z m -4.082687,0.01906 c 0,-0.0048 0.04058,-0.04535 0.09017,-0.09017 l 0.09017,-0.08149 -0.08149,0.09017 c -0.07596,0.08405 -0.09885,0.102919 -0.09885,0.08149 z m 4.083715,-0.199396 c 5.66e-4,-0.04578 0.0068,-0.06115 0.01382,-0.03415 0.007,0.02699 0.0066,0.06445 -0.001,0.08323 -0.0076,0.01878 -0.01336,-0.0033 -0.01279,-0.04908 z m -7.214359,-0.01387 c 0,-0.03815 0.0063,-0.05375 0.013994,-0.03468 0.0077,0.01907 0.0077,0.05029 0,0.06936 -0.0077,0.01907 -0.013994,0.0035 -0.013994,-0.03468 z m 1.55364,0 c 0,-0.03815 0.0063,-0.05375 0.01399,-0.03468 0.0077,0.01907 0.0077,0.05029 0,0.06936 -0.0077,0.01907 -0.01399,0.0035 -0.01399,-0.03468 z m 4.10605,0 c 0,-0.03815 0.0063,-0.05375 0.01399,-0.03468 0.0077,0.01907 0.0077,0.05029 0,0.06936 -0.0077,0.01907 -0.01399,0.0035 -0.01399,-0.03468 z m -2.118094,-0.0467 c 0.02003,-0.008 0.04396,-0.007 0.05318,0.0022 0.0092,0.0092 -0.0072,0.01578 -0.03641,0.01457 -0.03232,-0.0013 -0.03889,-0.0079 -0.01676,-0.01676 z M 9.0599909,47.967877 c 0,-0.0058 0.021848,-0.02761 0.048551,-0.04855 0.044003,-0.03451 0.044984,-0.03353 0.010475,0.01047 -0.036243,0.04621 -0.059026,0.06091 -0.059026,0.03808 z m 5.6596901,0 c 0,-0.0058 0.02185,-0.02761 0.04855,-0.04855 0.044,-0.03451 0.04499,-0.03353 0.01048,0.01047 -0.03624,0.04621 -0.05903,0.06091 -0.05903,0.03808 z M 9.7055571,47.59846 c 0.026994,-0.007 0.064447,-0.0066 0.083231,10e-4 0.018783,0.0076 -0.0033,0.01336 -0.049079,0.01279 -0.045777,-5.65e-4 -0.061145,-0.0068 -0.034152,-0.01382 z m 5.6596899,0 c 0.02699,-0.007 0.06445,-0.0066 0.08323,10e-4 0.01878,0.0076 -0.0033,0.01336 -0.04908,0.01279 -0.04578,-5.65e-4 -0.06115,-0.0068 -0.03415,-0.01382 z M 7.1698885,45.932263 c -0.034509,-0.044 -0.033528,-0.04498 0.010475,-0.01047 0.026703,0.02094 0.048551,0.04279 0.048551,0.04855 0,0.02283 -0.022783,0.0081 -0.059026,-0.03808 z M 6.9792224,45.772738 c -0.06739,-0.06867 -0.116285,-0.124846 -0.1086555,-0.124846 0.00763,0 0.069009,0.05618 0.1363991,0.124846 0.06739,0.06867 0.1162849,0.124846 0.1086555,0.124846 -0.00763,0 -0.069009,-0.05618 -0.1363991,-0.124846 z m 11.2904776,0.0069 c 0.06803,-0.07248 0.12733,-0.131782 0.131782,-0.131782 0.02083,0 -0.0012,0.02491 -0.123687,0.139877 L 18.146013,45.91142 Z M 6.565259,44.993606 c 0.00133,-0.03232 0.00791,-0.03889 0.016762,-0.01676 0.00801,0.02003 0.00703,0.04396 -0.00219,0.05318 -0.00922,0.0092 -0.015776,-0.0072 -0.014572,-0.03641 z m 12.123945,0 c 0.0013,-0.03232 0.0079,-0.03889 0.01676,-0.01676 0.008,0.02003 0.007,0.04396 -0.0022,0.05318 -0.0092,0.0092 -0.01578,-0.0072 -0.01457,-0.03641 z M 7.9225041,44.860596 c 0,-0.0058 0.021848,-0.02761 0.048551,-0.04855 0.044003,-0.03451 0.044984,-0.03353 0.010475,0.01047 -0.036243,0.04621 -0.059026,0.06091 -0.059026,0.03808 z M 6.54326,44.718482 c 2.22e-4,-0.0763 0.0056,-0.104214 0.011973,-0.06204 0.00638,0.04217 0.00621,0.104595 -3.773e-4,0.138718 -0.00659,0.03412 -0.011803,-3.8e-4 -0.011595,-0.07668 z m 12.179432,0 c 2.22e-4,-0.0763 0.0056,-0.104214 0.01197,-0.06204 0.0064,0.04217 0.0062,0.104595 -3.77e-4,0.138718 -0.0066,0.03412 -0.0118,-3.8e-4 -0.01159,-0.07668 z m -10.7169572,0.03114 c 0,-0.0058 0.021848,-0.02761 0.048551,-0.04855 0.044003,-0.03451 0.044984,-0.03353 0.010475,0.01047 -0.036243,0.04621 -0.059026,0.06091 -0.059026,0.03808 z m 9.1240992,-0.121307 c -0.03451,-0.044 -0.03353,-0.04498 0.01047,-0.01047 0.04621,0.03624 0.06091,0.05903 0.03808,0.05903 -0.0058,0 -0.02761,-0.02185 -0.04855,-0.04855 z m -8.9715095,-0.06242 c 0.027618,-0.03052 0.056458,-0.05549 0.064087,-0.05549 0.00763,0 -0.00872,0.02497 -0.036343,0.05549 -0.027618,0.03052 -0.056458,0.05549 -0.064087,0.05549 -0.00763,0 0.00873,-0.02497 0.036343,-0.05549 z m 8.8198225,-0.11791 -0.05285,-0.06242 0.06242,0.05285 c 0.03433,0.02907 0.06242,0.05716 0.06242,0.06242 0,0.0222 -0.02233,0.0058 -0.072,-0.05285 z m -10.412888,-0.0092 c 0.00133,-0.03232 0.00791,-0.03889 0.016762,-0.01676 0.00801,0.02003 0.00703,0.04396 -0.00219,0.05318 -0.00922,0.0092 -0.015776,-0.0072 -0.014572,-0.03641 z m 12.123945,0 c 0.0013,-0.03232 0.0079,-0.03889 0.01676,-0.01676 0.008,0.02003 0.007,0.04396 -0.0022,0.05318 -0.0092,0.0092 -0.01578,-0.0072 -0.01457,-0.03641 z M 8.5189911,44.177482 c 0.1366945,-0.137331 0.2547776,-0.249692 0.2624071,-0.249692 0.00763,0 -0.097969,0.112361 -0.2346636,0.249692 -0.1366945,0.137331 -0.2547776,0.249692 -0.2624071,0.249692 -0.00763,0 0.097969,-0.112361 0.2346636,-0.249692 z m -1.8449481,-0.0733 c 0,-0.01489 0.019416,-0.0513 0.043146,-0.08092 0.040682,-0.05078 0.04126,-0.04989 0.010114,0.0155 -0.040445,0.08492 -0.05326,0.100663 -0.05326,0.06541 z M 18.552298,44.0457 c -0.03027,-0.07075 -0.02959,-0.07238 0.0094,-0.02244 0.02314,0.02962 0.04207,0.06395 0.04207,0.07629 0,0.04217 -0.01882,0.02248 -0.05148,-0.05385 z m -2.114615,-0.138718 -0.06726,-0.0763 0.0763,0.06726 c 0.04196,0.03699 0.07629,0.07133 0.07629,0.0763 0,0.02176 -0.02247,0.004 -0.08533,-0.06726 z m -7.5302818,-0.09017 c 0.027618,-0.03052 0.056458,-0.05549 0.064087,-0.05549 0.00763,0 -0.00873,0.02497 -0.036344,0.05549 -0.027618,0.03052 -0.056458,0.05549 -0.064087,0.05549 -0.00763,0 0.00873,-0.02497 0.036344,-0.05549 z m 7.3623818,-0.04855 c -0.03451,-0.044 -0.03353,-0.04498 0.01047,-0.01047 0.0267,0.02094 0.04855,0.04279 0.04855,0.04855 0,0.02283 -0.02278,0.0081 -0.05903,-0.03808 z m -9.29172,-0.0971 c 0.068028,-0.07248 0.1273294,-0.131782 0.131782,-0.131782 0.020832,0 -0.00119,0.02491 -0.1236867,0.139878 l -0.131782,0.123686 z m 11.292796,-0.0069 c -0.06739,-0.06867 -0.116285,-0.124847 -0.108655,-0.124847 0.0076,0 0.06901,0.05618 0.136399,0.124847 0.06739,0.06867 0.116285,0.124846 0.108656,0.124846 -0.0076,0 -0.06901,-0.05618 -0.1364,-0.124846 z m -9.2320545,0.05372 c 0.03716,-0.04416 0.040648,-0.06478 0.015259,-0.09017 -0.018102,-0.0181 -0.025703,-0.03291 -0.01689,-0.03291 0.00881,0 0.029992,0.01683 0.047066,0.0374 0.023822,0.0287 0.016545,0.04968 -0.031282,0.09017 -0.062166,0.05263 -0.062202,0.05262 -0.014152,-0.0045 z m 7.1235425,-0.03183 c 0,-0.01593 0.02185,-0.0461 0.04855,-0.06705 0.04491,-0.03522 0.0455,-0.03392 0.0078,0.01741 -0.02238,0.03052 -0.04423,0.06069 -0.04855,0.06705 -0.0043,0.0064 -0.0079,-0.0015 -0.0079,-0.01741 z m -7.244613,-0.16758 c -0.034509,-0.044 -0.033528,-0.04498 0.010475,-0.01047 0.046214,0.03624 0.06091,0.05903 0.038076,0.05903 -0.00576,0 -0.027609,-0.02185 -0.048551,-0.04855 z m 7.383331,0.03808 c 0,-0.0058 0.02185,-0.02761 0.04855,-0.04855 0.044,-0.03451 0.04498,-0.03353 0.01047,0.01047 -0.03624,0.04621 -0.05903,0.06091 -0.05903,0.03808 z m -9.1553811,-0.02774 c 0,-0.0058 0.021848,-0.02761 0.048551,-0.04855 0.044003,-0.03451 0.044984,-0.03353 0.010475,0.01047 -0.036243,0.04621 -0.059026,0.06091 -0.059026,0.03808 z m 0.6329004,-0.285913 c 0.020027,-0.008 0.043956,-0.007 0.053175,0.0022 0.00922,0.0092 -0.00717,0.01578 -0.036414,0.01457 -0.03232,-0.0013 -0.038894,-0.0079 -0.016762,-0.01676 z m 0.4699069,5.78e-4 c 0.019074,-0.0077 0.050285,-0.0077 0.069359,0 0.019074,0.0077 0.00347,0.01399 -0.034679,0.01399 -0.038147,0 -0.053753,-0.0063 -0.03468,-0.01399 z m 8.7114838,0 c 0.01907,-0.0077 0.05029,-0.0077 0.06936,0 0.01907,0.0077 0.0035,0.01399 -0.03468,0.01399 -0.03815,0 -0.05375,-0.0063 -0.03468,-0.01399 z m 0.501119,-5.78e-4 c 0.02003,-0.008 0.04396,-0.007 0.05317,0.0022 0.0092,0.0092 -0.0072,0.01578 -0.03641,0.01457 -0.03232,-0.0013 -0.03889,-0.0079 -0.01676,-0.01676 z"
           id="path1197" /><path
           style="fill:#7a5b11;stroke-width:0.0277436"
           d="m 12.472272,49.533814 c -0.136504,-0.04152 -0.245363,-0.112998 -0.339376,-0.222832 -0.212088,-0.247776 -0.212008,-0.5865 1.94e-4,-0.834412 0.301873,-0.352671 0.831417,-0.307021 1.059891,0.09137 0.155488,0.271125 0.09614,0.636235 -0.134419,0.826947 -0.159428,0.131874 -0.41241,0.191821 -0.586292,0.138928 z M 9.4574504,49.113243 C 9.1659775,49.00117 8.9720598,48.715552 8.9705062,48.396032 c -0.00147,-0.302013 0.1358092,-0.536557 0.3995594,-0.68266 0.1293467,-0.07165 0.1752665,-0.08176 0.369643,-0.08133 0.2374825,5.13e-4 0.3581504,0.04412 0.5358774,0.193672 0.224028,0.188507 0.302691,0.602732 0.168624,0.887947 -0.175886,0.374181 -0.6030051,0.547142 -0.9867596,0.399586 z m 5.6596906,0 c -0.29324,-0.112752 -0.485353,-0.393741 -0.486913,-0.71217 -0.0015,-0.307378 0.133992,-0.540608 0.399528,-0.687701 0.129347,-0.07165 0.175266,-0.08176 0.369643,-0.08133 0.237482,5.13e-4 0.35815,0.04412 0.535878,0.193672 0.222422,0.187157 0.301618,0.605012 0.168386,0.888451 -0.175645,0.373669 -0.602999,0.546549 -0.986522,0.399082 z m 2.770056,-3.310338 c -0.315451,-0.701002 -0.986491,-1.553326 -1.613875,-2.049869 l -0.0971,-0.07685 0.110974,-0.09701 c 0.326123,-0.285084 0.844173,-0.406755 1.287216,-0.302321 0.928848,0.218949 1.403926,1.244078 0.980604,2.115957 -0.08043,0.165664 -0.363154,0.486944 -0.497323,0.565154 l -0.07979,0.04651 z M 7.0120597,45.765802 C 6.8743092,45.628093 6.7699731,45.494223 6.7218593,45.393456 6.430107,44.782428 6.549855,44.095065 7.0255866,43.650042 7.5714912,43.139375 8.35177,43.096493 8.9452096,43.544544 l 0.1511018,0.114083 -0.1499421,0.126999 c -0.6510331,0.551418 -1.1706759,1.205398 -1.5027591,1.891251 -0.079935,0.16509 -0.1613422,0.301013 -0.1809048,0.302051 -0.019563,10e-4 -0.1323529,-0.09487 -0.2506457,-0.213126 z"
           id="path1195" /></g></g></g></svg>
