<svg class="svg-icon" style="width: 1em; height: 1em;vertical-align: middle;fill: currentColor;overflow: hidden;" viewBox="0 0 1024 1024" version="1.1" xmlns="http://www.w3.org/2000/svg"><path d="M822.7 509.3c0 172.2-139.6 311.8-311.7 311.8-103.8 0-195.7-50.7-252.3-128.7-37.4-51.4-59.5-114.7-59.5-183.1 0-16.8 1.3-33.2 3.9-49.3 13.1-82.3 58.4-153.8 122.5-201.3 51.8-38.4 116-61.1 185.5-61.1 45.5 0 88.9 9.8 127.8 27.3 108.3 48.7 183.8 157.7 183.8 284.4z" fill="#F2F2F2" /><path d="M349.3 318.6m-97.6 0a97.6 97.6 0 1 0 195.2 0 97.6 97.6 0 1 0-195.2 0Z" fill="#FFBA36" /><path d="M349.3 318.6m-53.8 0a53.8 53.8 0 1 0 107.6 0 53.8 53.8 0 1 0-107.6 0Z" fill="#7B5C12" /><path d="M679.7 318.6m-97.6 0a97.6 97.6 0 1 0 195.2 0 97.6 97.6 0 1 0-195.2 0Z" fill="#FFBA36" /><path d="M679.7 318.6m-53.8 0a53.8 53.8 0 1 0 107.6 0 53.8 53.8 0 1 0-107.6 0Z" fill="#7B5C12" /><path d="M514.2 547.8c-109.6 0-202.4 71.1-235.3 169.6 57.1 63.6 139.8 103.7 232 103.7 94.7 0 179.5-42.3 236.7-109-34.3-95.8-125.9-164.3-233.4-164.3z" fill="#FFBA36" /><path d="M342.6 771.6c48.6 31.2 106.3 49.5 168.3 49.5 64.5 0 124.5-19.6 174.2-53.2-13.3-82.4-84.8-145.4-171-145.4-87.4 0-159.7 64.9-171.5 149.1z" fill="#FCDC86" /><path d="M514.2 446.8m-208.6 0a208.6 208.6 0 1 0 417.2 0 208.6 208.6 0 1 0-417.2 0Z" fill="#FFBA36" /><path d="M410.3 450.6m-28.4 0a28.4 28.4 0 1 0 56.8 0 28.4 28.4 0 1 0-56.8 0Z" fill="#7B5C12" /><path d="M613.7 450.6m-28.4 0a28.4 28.4 0 1 0 56.8 0 28.4 28.4 0 1 0-56.8 0Z" fill="#7B5C12" /><path d="M535.5 558.2h-42.6c-29.6 0-53.8-24.2-53.8-53.8 0-29.6 24.2-53.8 53.8-53.8h42.6c29.6 0 53.8 24.2 53.8 53.8 0 29.6-24.2 53.8-53.8 53.8z" fill="#FCDC86" /><path d="M514.2 468.7m-24.1 0a24.1 24.1 0 1 0 48.2 0 24.1 24.1 0 1 0-48.2 0Z" fill="#7B5C12" /><path d="M514.2 539.7c19 0 34.5-15.4 34.5-34.5h-69c0 19 15.4 34.5 34.5 34.5z" fill="#E85423" /></svg>